MetaBlum_5.ufo
<glyph name="A" format="1">
  <advance width="560"/>
  <unicode hex="0041"/>
  <outline>
    <contour>
      <point x="167" y="1674" type="curve" smooth="yes"/>
      <point x="288" y="1696"/>
      <point x="305" y="1699"/>
      <point x="305" y="1697" type="curve"/>
      <point x="306" y="1696"/>
      <point x="312" y="1664"/>
      <point x="318" y="1625" type="curve"/>
      <point x="331" y="1554" type="line"/>
      <point x="406" y="752" type="line" smooth="yes"/>
      <point x="447" y="311"/>
      <point x="481" y="-50"/>
      <point x="481" y="-50" type="curve" smooth="yes"/>
      <point x="480" y="-50"/>
      <point x="205" y="-99"/>
      <point x="204" y="-99" type="curve" smooth="yes"/>
      <point x="204" y="-99"/>
      <point x="201" y="-78"/>
      <point x="196" y="-52" type="curve" smooth="yes"/>
      <point x="192" y="-26"/>
      <point x="188" y="-5"/>
      <point x="187" y="-4" type="curve" smooth="yes"/>
      <point x="187" y="-3"/>
      <point x="186" y="-12"/>
      <point x="184" y="-26" type="curve" smooth="yes"/>
      <point x="183" y="-39"/>
      <point x="182" y="-49"/>
      <point x="182" y="-50" type="curve"/>
      <point x="181" y="-50"/>
      <point x="-94" y="-99"/>
      <point x="-95" y="-99" type="curve" smooth="yes"/>
      <point x="-95" y="-99"/>
      <point x="-101" y="-65"/>
      <point x="-108" y="-25" type="curve" smooth="yes"/>
      <point x="-121" y="49" type="line"/>
      <point x="-46" y="849" type="line" smooth="yes"/>
      <point x="-5" y="1289"/>
      <point x="28" y="1650"/>
      <point x="29" y="1650" type="curve" smooth="yes"/>
      <point x="29" y="1650"/>
      <point x="91" y="1661"/>
    </contour>
  </outline>
</glyph>
<glyph name="B" format="1">
  <advance width="680"/>
  <unicode hex="0042"/>
  <outline>
    <contour>
      <point x="93" y="1674" type="curve"/>
      <point x="168" y="1688"/>
      <point x="230" y="1699"/>
      <point x="230" y="1699" type="curve" smooth="yes"/>
      <point x="231" y="1699"/>
      <point x="251" y="1683"/>
      <point x="266" y="1670" type="curve" smooth="yes"/>
      <point x="353" y="1592"/>
      <point x="416" y="1483"/>
      <point x="442" y="1367" type="curve" smooth="yes"/>
      <point x="445" y="1353"/>
      <point x="472" y="1200"/>
      <point x="476" y="1176" type="curve" smooth="yes"/>
      <point x="480" y="1148"/>
      <point x="481" y="1129"/>
      <point x="481" y="1093" type="curve" smooth="yes"/>
      <point x="481" y="1058"/>
      <point x="481" y="1046"/>
      <point x="477" y="1017" type="curve" smooth="yes"/>
      <point x="465" y="923"/>
      <point x="427" y="828"/>
      <point x="371" y="752" type="curve" smooth="yes"/>
      <point x="364" y="743"/>
      <point x="364" y="743"/>
      <point x="366" y="742" type="curve" smooth="yes"/>
      <point x="367" y="741"/>
      <point x="372" y="738"/>
      <point x="377" y="735" type="curve" smooth="yes"/>
      <point x="455" y="689"/>
      <point x="515" y="607"/>
      <point x="537" y="518" type="curve" smooth="yes"/>
      <point x="540" y="502"/>
      <point x="568" y="346"/>
      <point x="571" y="327" type="curve" smooth="yes"/>
      <point x="576" y="282"/>
      <point x="572" y="233"/>
      <point x="558" y="187" type="curve" smooth="yes"/>
      <point x="526" y="76"/>
      <point x="438" y="-10"/>
      <point x="327" y="-39" type="curve" smooth="yes"/>
      <point x="313" y="-42"/>
      <point x="33" y="-93"/>
      <point x="9" y="-96" type="curve" smooth="yes"/>
      <point x="-2" y="-97"/>
      <point x="-20" y="-98"/>
      <point x="-20" y="-98" type="curve" smooth="yes"/>
      <point x="-20" y="-97"/>
      <point x="-26" y="-64"/>
      <point x="-33" y="-23" type="curve" smooth="yes"/>
      <point x="-46" y="51" type="line"/>
      <point x="-46" y="850" type="line" smooth="yes"/>
      <point x="-46" y="1290"/>
      <point x="-46" y="1650"/>
      <point x="-45" y="1650" type="curve" smooth="yes"/>
      <point x="-45" y="1650"/>
      <point x="17" y="1661"/>
    </contour>
    <contour>
      <point x="265" y="381" type="line" smooth="yes"/>
      <point x="256" y="400"/>
      <point x="257" y="404"/>
      <point x="257" y="345" type="curve" smooth="yes"/>
      <point x="257" y="287"/>
      <point x="257" y="288"/>
      <point x="262" y="314" type="curve" smooth="yes"/>
      <point x="265" y="328"/>
      <point x="268" y="344"/>
      <point x="269" y="359" type="curve" smooth="yes"/>
      <point x="270" y="370" type="line"/>
    </contour>
  </outline>
</glyph>
<glyph name="C" format="1">
  <advance width="650"/>
  <unicode hex="0043"/>
  <outline>
    <contour>
      <point x="321" y="1908" type="curve" smooth="yes"/>
      <point x="334" y="1909"/>
      <point x="368" y="1909"/>
      <point x="381" y="1908" type="curve" smooth="yes"/>
      <point x="451" y="1902"/>
      <point x="518" y="1874"/>
      <point x="573" y="1829" type="curve" smooth="yes"/>
      <point x="586" y="1819"/>
      <point x="609" y="1796"/>
      <point x="619" y="1784" type="curve" smooth="yes"/>
      <point x="657" y="1738"/>
      <point x="684" y="1685"/>
      <point x="697" y="1633" type="curve" smooth="yes"/>
      <point x="700" y="1621"/>
      <point x="726" y="1474"/>
      <point x="729" y="1451" type="curve" smooth="yes"/>
      <point x="739" y="1389"/>
      <point x="729" y="1321"/>
      <point x="703" y="1262" type="curve" smooth="yes"/>
      <point x="672" y="1191"/>
      <point x="620" y="1135"/>
      <point x="551" y="1097" type="curve"/>
      <point x="542" y="1093" type="line"/>
      <point x="414" y="1070" type="line"/>
      <point x="286" y="1047" type="line"/>
      <point x="286" y="1044" type="line" smooth="yes"/>
      <point x="286" y="1043"/>
      <point x="293" y="1002"/>
      <point x="301" y="954" type="curve" smooth="yes"/>
      <point x="310" y="906"/>
      <point x="318" y="860"/>
      <point x="319" y="852" type="curve" smooth="yes"/>
      <point x="334" y="741"/>
      <point x="325" y="632"/>
      <point x="291" y="524" type="curve" smooth="yes"/>
      <point x="289" y="517"/>
      <point x="289" y="516"/>
      <point x="290" y="517" type="curve" smooth="yes"/>
      <point x="291" y="517"/>
      <point x="342" y="526"/>
      <point x="403" y="537" type="curve" smooth="yes"/>
      <point x="515" y="556" type="line"/>
      <point x="524" y="552" type="line"/>
      <point x="542" y="542"/>
      <point x="564" y="527"/>
      <point x="582" y="513" type="curve" smooth="yes"/>
      <point x="595" y="502"/>
      <point x="619" y="478"/>
      <point x="629" y="465" type="curve" smooth="yes"/>
      <point x="661" y="425"/>
      <point x="686" y="375"/>
      <point x="698" y="326" type="curve" smooth="yes"/>
      <point x="700" y="316"/>
      <point x="728" y="158"/>
      <point x="730" y="143" type="curve" smooth="yes"/>
      <point x="738" y="88"/>
      <point x="731" y="28"/>
      <point x="710" y="-25" type="curve" smooth="yes"/>
      <point x="665" y="-144"/>
      <point x="566" y="-230"/>
      <point x="447" y="-253" type="curve" smooth="yes"/>
      <point x="425" y="-258"/>
      <point x="156" y="-305"/>
      <point x="144" y="-307" type="curve" smooth="yes"/>
      <point x="127" y="-309"/>
      <point x="90" y="-310"/>
      <point x="73" y="-308" type="curve" smooth="yes"/>
      <point x="-3" y="-302"/>
      <point x="-71" y="-271"/>
      <point x="-121" y="-221" type="curve" smooth="yes"/>
      <point x="-144" y="-198"/>
      <point x="-160" y="-175"/>
      <point x="-175" y="-145" type="curve" smooth="yes"/>
      <point x="-185" y="-125"/>
      <point x="-192" y="-108"/>
      <point x="-197" y="-88" type="curve" smooth="yes"/>
      <point x="-201" y="-69"/>
      <point x="-229" y="86"/>
      <point x="-230" y="103" type="curve" smooth="yes"/>
      <point x="-234" y="151"/>
      <point x="-223" y="205"/>
      <point x="-197" y="264" type="curve" smooth="yes"/>
      <point x="-182" y="300"/>
      <point x="-166" y="329"/>
      <point x="-121" y="403" type="curve" smooth="yes"/>
      <point x="-85" y="464"/>
      <point x="-73" y="484"/>
      <point x="-59" y="511" type="curve" smooth="yes"/>
      <point x="-15" y="597"/>
      <point x="12" y="690"/>
      <point x="21" y="789" type="curve" smooth="yes"/>
      <point x="23" y="813"/>
      <point x="23" y="863"/>
      <point x="22" y="886" type="curve" smooth="yes"/>
      <point x="21" y="904"/>
      <point x="21" y="905"/>
      <point x="16" y="919" type="curve" smooth="yes"/>
      <point x="3" y="962"/>
      <point x="-16" y="1009"/>
      <point x="-38" y="1049" type="curve" smooth="yes"/>
      <point x="-51" y="1074"/>
      <point x="-62" y="1093"/>
      <point x="-91" y="1142" type="curve" smooth="yes"/>
      <point x="-129" y="1205"/>
      <point x="-143" y="1230"/>
      <point x="-157" y="1257" type="curve" smooth="yes"/>
      <point x="-175" y="1293"/>
      <point x="-189" y="1328"/>
      <point x="-196" y="1358" type="curve" smooth="yes"/>
      <point x="-199" y="1369"/>
      <point x="-225" y="1515"/>
      <point x="-229" y="1541" type="curve" smooth="yes"/>
      <point x="-231" y="1555"/>
      <point x="-231" y="1594"/>
      <point x="-229" y="1607" type="curve" smooth="yes"/>
      <point x="-225" y="1640"/>
      <point x="-215" y="1670"/>
      <point x="-199" y="1700" type="curve" smooth="yes"/>
      <point x="-161" y="1776"/>
      <point x="-90" y="1831"/>
      <point x="-5" y="1851" type="curve" smooth="yes"/>
      <point x="2" y="1853"/>
      <point x="71" y="1865"/>
      <point x="150" y="1879" type="curve" smooth="yes"/>
      <point x="302" y="1906"/>
      <point x="307" y="1907"/>
    </contour>
    <contour>
      <point x="209" y="1694" type="curve" smooth="yes"/>
      <point x="199" y="1697"/>
      <point x="190" y="1700"/>
      <point x="189" y="1700" type="curve" smooth="yes"/>
      <point x="184" y="1700"/>
      <point x="150" y="1667"/>
      <point x="136" y="1650" type="curve" smooth="yes"/>
      <point x="104" y="1610"/>
      <point x="81" y="1559"/>
      <point x="75" y="1511" type="curve"/>
      <point x="73" y="1499" type="line"/>
      <point x="78" y="1487" type="line" smooth="yes"/>
      <point x="93" y="1452"/>
      <point x="112" y="1419"/>
      <point x="156" y="1345" type="curve" smooth="yes"/>
      <point x="174" y="1315"/>
      <point x="194" y="1282"/>
      <point x="199" y="1272" type="curve" smooth="yes"/>
      <point x="210" y="1252"/>
      <point x="228" y="1217"/>
      <point x="235" y="1201" type="curve" smooth="yes"/>
      <point x="239" y="1193" type="line"/>
      <point x="245" y="1196" type="line" smooth="yes"/>
      <point x="254" y="1201"/>
      <point x="268" y="1209"/>
      <point x="280" y="1217" type="curve" smooth="yes"/>
      <point x="348" y="1263"/>
      <point x="399" y="1336"/>
      <point x="419" y="1416" type="curve" smooth="yes"/>
      <point x="424" y="1438"/>
      <point x="429" y="1464"/>
      <point x="429" y="1481" type="curve" smooth="yes"/>
      <point x="429" y="1488" type="line"/>
      <point x="419" y="1508" type="line" smooth="yes"/>
      <point x="396" y="1555"/>
      <point x="367" y="1592"/>
      <point x="332" y="1624" type="curve"/>
      <point x="295" y="1656"/>
      <point x="256" y="1679"/>
    </contour>
    <contour>
      <point x="258" y="395" type="curve" smooth="yes"/>
      <point x="255" y="411"/>
      <point x="252" y="425"/>
      <point x="252" y="425" type="curve" smooth="yes"/>
      <point x="252" y="426"/>
      <point x="249" y="420"/>
      <point x="245" y="413" type="curve" smooth="yes"/>
      <point x="233" y="390"/>
      <point x="218" y="363"/>
      <point x="185" y="309" type="curve" smooth="yes"/>
      <point x="168" y="280"/>
      <point x="150" y="250"/>
      <point x="146" y="242" type="curve" smooth="yes"/>
      <point x="106" y="173"/>
      <point x="84" y="118"/>
      <point x="76" y="67" type="curve" smooth="yes"/>
      <point x="75" y="62"/>
      <point x="74" y="57"/>
      <point x="74" y="55" type="curve" smooth="yes"/>
      <point x="74" y="54"/>
      <point x="77" y="49"/>
      <point x="80" y="42" type="curve" smooth="yes"/>
      <point x="120" y="-29"/>
      <point x="180" y="-77"/>
      <point x="264" y="-100" type="curve"/>
      <point x="269" y="-102" type="line"/>
      <point x="282" y="-92" type="line" smooth="yes"/>
      <point x="316" y="-66"/>
      <point x="345" y="-36"/>
      <point x="367" y="-2" type="curve" smooth="yes"/>
      <point x="404" y="53"/>
      <point x="424" y="108"/>
      <point x="429" y="170" type="curve" smooth="yes"/>
      <point x="430" y="181" type="line"/>
      <point x="427" y="189" type="line"/>
      <point x="412" y="222"/>
      <point x="388" y="258"/>
      <point x="362" y="286" type="curve" smooth="yes"/>
      <point x="338" y="312"/>
      <point x="306" y="337"/>
      <point x="273" y="354" type="curve" smooth="yes"/>
      <point x="266" y="358"/>
      <point x="264" y="360"/>
      <point x="264" y="362" type="curve"/>
      <point x="263" y="363"/>
      <point x="261" y="378"/>
    </contour>
  </outline>
</glyph>
<glyph name="D" format="1">
  <advance width="695"/>
  <unicode hex="0044"/>
  <outline>
    <contour>
      <point x="93" y="1674" type="curve"/>
      <point x="168" y="1688"/>
      <point x="230" y="1699"/>
      <point x="230" y="1699" type="curve" smooth="yes"/>
      <point x="231" y="1699"/>
      <point x="253" y="1673"/>
      <point x="270" y="1652" type="curve" smooth="yes"/>
      <point x="326" y="1583"/>
      <point x="369" y="1514"/>
      <point x="409" y="1435" type="curve" smooth="yes"/>
      <point x="450" y="1352"/>
      <point x="479" y="1272"/>
      <point x="501" y="1182" type="curve" smooth="yes"/>
      <point x="510" y="1146"/>
      <point x="513" y="1133"/>
      <point x="531" y="1030" type="curve" smooth="yes"/>
      <point x="547" y="938"/>
      <point x="551" y="912"/>
      <point x="555" y="878" type="curve" smooth="yes"/>
      <point x="575" y="691"/>
      <point x="551" y="503"/>
      <point x="486" y="328" type="curve" smooth="yes"/>
      <point x="462" y="264"/>
      <point x="430" y="198"/>
      <point x="395" y="139" type="curve" smooth="yes"/>
      <point x="359" y="79"/>
      <point x="319" y="22"/>
      <point x="271" y="-33" type="curve" smooth="yes"/>
      <point x="257" y="-49" type="line"/>
      <point x="119" y="-74" type="line" smooth="yes"/>
      <point x="43" y="-87"/>
      <point x="-19" y="-98"/>
      <point x="-20" y="-98" type="curve" smooth="yes"/>
      <point x="-20" y="-98"/>
      <point x="-26" y="-64"/>
      <point x="-33" y="-23" type="curve" smooth="yes"/>
      <point x="-46" y="51" type="line"/>
      <point x="-46" y="850" type="line" smooth="yes"/>
      <point x="-46" y="1290"/>
      <point x="-46" y="1650"/>
      <point x="-45" y="1650" type="curve" smooth="yes"/>
      <point x="-45" y="1650"/>
      <point x="17" y="1661"/>
    </contour>
    <contour>
      <point x="258" y="802" type="curve" smooth="yes"/>
      <point x="258" y="810"/>
      <point x="259" y="831"/>
      <point x="259" y="849" type="curve" smooth="yes"/>
      <point x="259" y="866"/>
      <point x="258" y="887"/>
      <point x="258" y="895" type="curve" smooth="yes"/>
      <point x="258" y="904"/>
      <point x="257" y="885"/>
      <point x="257" y="849" type="curve" smooth="yes"/>
      <point x="257" y="812"/>
      <point x="258" y="793"/>
    </contour>
  </outline>
</glyph>
<glyph name="E" format="1">
  <advance width="665"/>
  <unicode hex="0045"/>
  <outline>
    <contour>
      <point x="91" y="1675" type="line"/>
      <point x="228" y="1699" type="line"/>
      <point x="379" y="1699" type="line"/>
      <point x="530" y="1699" type="line"/>
      <point x="530" y="1696" type="line"/>
      <point x="535" y="1671"/>
      <point x="556" y="1551"/>
      <point x="556" y="1551" type="curve" smooth="yes"/>
      <point x="556" y="1550"/>
      <point x="494" y="1539"/>
      <point x="418" y="1526" type="curve" smooth="yes"/>
      <point x="290" y="1504"/>
      <point x="280" y="1502"/>
      <point x="269" y="1502" type="curve" smooth="yes"/>
      <point x="257" y="1502" type="line"/>
      <point x="257" y="1143" type="line"/>
      <point x="257" y="784" type="line"/>
      <point x="356" y="784" type="line"/>
      <point x="455" y="784" type="line"/>
      <point x="468" y="712" type="line" smooth="yes"/>
      <point x="475" y="672"/>
      <point x="481" y="639"/>
      <point x="481" y="637" type="curve" smooth="yes"/>
      <point x="481" y="636"/>
      <point x="475" y="634"/>
      <point x="371" y="616" type="curve" smooth="yes"/>
      <point x="310" y="605"/>
      <point x="260" y="596"/>
      <point x="259" y="596" type="curve" smooth="yes"/>
      <point x="257" y="596"/>
      <point x="257" y="583"/>
      <point x="257" y="347" type="curve" smooth="yes"/>
      <point x="257" y="99" type="line"/>
      <point x="393" y="99" type="line"/>
      <point x="530" y="99" type="line"/>
      <point x="530" y="96" type="line"/>
      <point x="535" y="71"/>
      <point x="556" y="-49"/>
      <point x="556" y="-49" type="curve" smooth="yes"/>
      <point x="556" y="-50"/>
      <point x="494" y="-61"/>
      <point x="418" y="-74" type="curve" smooth="yes"/>
      <point x="281" y="-98" type="line"/>
      <point x="130" y="-98" type="line" smooth="yes"/>
      <point x="48" y="-98"/>
      <point x="-20" y="-98"/>
      <point x="-20" y="-97" type="curve" smooth="yes"/>
      <point x="-20" y="-97"/>
      <point x="-26" y="-64"/>
      <point x="-33" y="-23" type="curve" smooth="yes"/>
      <point x="-46" y="51" type="line"/>
      <point x="-46" y="851" type="line"/>
      <point x="-46" y="1651" type="line"/>
    </contour>
  </outline>
</glyph>
<glyph name="F" format="1">
  <advance width="665"/>
  <unicode hex="0046"/>
  <outline>
    <contour>
      <point x="91" y="1675" type="line"/>
      <point x="228" y="1699" type="line"/>
      <point x="379" y="1699" type="line"/>
      <point x="530" y="1699" type="line"/>
      <point x="530" y="1696" type="line"/>
      <point x="535" y="1671"/>
      <point x="556" y="1551"/>
      <point x="556" y="1551" type="curve" smooth="yes"/>
      <point x="556" y="1550"/>
      <point x="494" y="1539"/>
      <point x="418" y="1526" type="curve" smooth="yes"/>
      <point x="290" y="1504"/>
      <point x="280" y="1502"/>
      <point x="269" y="1502" type="curve" smooth="yes"/>
      <point x="257" y="1502" type="line"/>
      <point x="257" y="1143" type="line"/>
      <point x="257" y="784" type="line"/>
      <point x="356" y="784" type="line"/>
      <point x="455" y="784" type="line"/>
      <point x="468" y="712" type="line" smooth="yes"/>
      <point x="475" y="672"/>
      <point x="481" y="639"/>
      <point x="481" y="637" type="curve" smooth="yes"/>
      <point x="481" y="636"/>
      <point x="475" y="634"/>
      <point x="371" y="616" type="curve" smooth="yes"/>
      <point x="310" y="605"/>
      <point x="260" y="596"/>
      <point x="259" y="596" type="curve" smooth="yes"/>
      <point x="257" y="596"/>
      <point x="257" y="580"/>
      <point x="257" y="273" type="curve" smooth="yes"/>
      <point x="257" y="-50" type="line"/>
      <point x="254" y="-51" type="line"/>
      <point x="241" y="-53"/>
      <point x="-20" y="-99"/>
      <point x="-20" y="-99" type="curve"/>
      <point x="-20" y="-99"/>
      <point x="-26" y="-65"/>
      <point x="-33" y="-24" type="curve" smooth="yes"/>
      <point x="-46" y="50" type="line"/>
      <point x="-46" y="850" type="line"/>
      <point x="-46" y="1651" type="line"/>
    </contour>
  </outline>
</glyph>
<glyph name="G" format="1">
  <advance width="665"/>
  <unicode hex="0047"/>
  <outline>
    <contour>
      <point x="357" y="1698" type="curve" smooth="yes"/>
      <point x="362" y="1698"/>
      <point x="377" y="1699"/>
      <point x="391" y="1699" type="curve" smooth="yes"/>
      <point x="416" y="1698"/>
      <point x="429" y="1697"/>
      <point x="449" y="1691" type="curve"/>
      <point x="480" y="1684"/>
      <point x="513" y="1668"/>
      <point x="539" y="1647" type="curve" smooth="yes"/>
      <point x="549" y="1639"/>
      <point x="568" y="1620"/>
      <point x="576" y="1610" type="curve" smooth="yes"/>
      <point x="599" y="1581"/>
      <point x="617" y="1543"/>
      <point x="625" y="1509" type="curve" smooth="yes"/>
      <point x="630" y="1490"/>
      <point x="657" y="1334"/>
      <point x="658" y="1320" type="curve" smooth="yes"/>
      <point x="660" y="1296"/>
      <point x="658" y="1267"/>
      <point x="652" y="1243" type="curve" smooth="yes"/>
      <point x="645" y="1210"/>
      <point x="628" y="1177"/>
      <point x="607" y="1150" type="curve" smooth="yes"/>
      <point x="597" y="1137"/>
      <point x="578" y="1118"/>
      <point x="564" y="1108" type="curve" smooth="yes"/>
      <point x="541" y="1091"/>
      <point x="560" y="1096"/>
      <point x="403" y="1068" type="curve" smooth="yes"/>
      <point x="328" y="1055"/>
      <point x="265" y="1044"/>
      <point x="265" y="1045" type="curve"/>
      <point x="264" y="1045"/>
      <point x="239" y="1189"/>
      <point x="239" y="1192" type="curve"/>
      <point x="239" y="1192"/>
      <point x="244" y="1196"/>
      <point x="250" y="1200" type="curve" smooth="yes"/>
      <point x="302" y="1235"/>
      <point x="337" y="1287"/>
      <point x="350" y="1347" type="curve" smooth="yes"/>
      <point x="355" y="1368"/>
      <point x="355" y="1367"/>
      <point x="347" y="1381" type="curve" smooth="yes"/>
      <point x="327" y="1414"/>
      <point x="302" y="1441"/>
      <point x="271" y="1462" type="curve" smooth="yes"/>
      <point x="260" y="1469"/>
      <point x="234" y="1483"/>
      <point x="231" y="1483" type="curve" smooth="yes"/>
      <point x="228" y="1483"/>
      <point x="212" y="1461"/>
      <point x="203" y="1444" type="curve" smooth="yes"/>
      <point x="184" y="1406"/>
      <point x="175" y="1363"/>
      <point x="173" y="1301" type="curve"/>
      <point x="172" y="1233"/>
      <point x="179" y="1169"/>
      <point x="206" y="1005" type="curve" smooth="yes"/>
      <point x="225" y="889"/>
      <point x="234" y="829"/>
      <point x="238" y="776" type="curve" smooth="yes"/>
      <point x="239" y="762" type="line"/>
      <point x="242" y="762" type="line"/>
      <point x="247" y="764"/>
      <point x="364" y="784"/>
      <point x="365" y="784" type="curve" smooth="yes"/>
      <point x="367" y="784"/>
      <point x="401" y="743"/>
      <point x="421" y="716" type="curve" smooth="yes"/>
      <point x="470" y="650"/>
      <point x="517" y="564"/>
      <point x="537" y="502" type="curve" smooth="yes"/>
      <point x="542" y="487"/>
      <point x="548" y="463"/>
      <point x="551" y="449" type="curve" smooth="yes"/>
      <point x="555" y="430"/>
      <point x="582" y="275"/>
      <point x="583" y="263" type="curve" smooth="yes"/>
      <point x="595" y="170"/>
      <point x="577" y="82"/>
      <point x="533" y="24" type="curve" smooth="yes"/>
      <point x="507" y="-11"/>
      <point x="472" y="-35"/>
      <point x="433" y="-44" type="curve" smooth="yes"/>
      <point x="421" y="-47"/>
      <point x="143" y="-96"/>
      <point x="131" y="-97" type="curve" smooth="yes"/>
      <point x="116" y="-99"/>
      <point x="83" y="-98"/>
      <point x="68" y="-95" type="curve" smooth="yes"/>
      <point x="39" y="-90"/>
      <point x="17" y="-81"/>
      <point x="-3" y="-65" type="curve" smooth="yes"/>
      <point x="-30" y="-44"/>
      <point x="-50" y="-9"/>
      <point x="-61" y="36" type="curve" smooth="yes"/>
      <point x="-64" y="52"/>
      <point x="-93" y="214"/>
      <point x="-94" y="230" type="curve" smooth="yes"/>
      <point x="-100" y="283"/>
      <point x="-99" y="354"/>
      <point x="-89" y="450" type="curve" smooth="yes"/>
      <point x="-88" y="461"/>
      <point x="-84" y="500"/>
      <point x="-79" y="537" type="curve" smooth="yes"/>
      <point x="-61" y="703"/>
      <point x="-58" y="754"/>
      <point x="-61" y="821" type="curve" smooth="yes"/>
      <point x="-64" y="892"/>
      <point x="-72" y="956"/>
      <point x="-95" y="1093" type="curve" smooth="yes"/>
      <point x="-119" y="1240"/>
      <point x="-126" y="1289"/>
      <point x="-129" y="1354" type="curve" smooth="yes"/>
      <point x="-130" y="1378"/>
      <point x="-130" y="1418"/>
      <point x="-128" y="1437" type="curve" smooth="yes"/>
      <point x="-120" y="1520"/>
      <point x="-92" y="1576"/>
      <point x="-41" y="1610" type="curve" smooth="yes"/>
      <point x="-22" y="1623"/>
      <point x="10" y="1636"/>
      <point x="36" y="1642" type="curve" smooth="yes"/>
      <point x="46" y="1644"/>
      <point x="305" y="1690"/>
      <point x="333" y="1695" type="curve" smooth="yes"/>
      <point x="341" y="1696"/>
      <point x="352" y="1697"/>
    </contour>
    <contour>
      <point x="234" y="420" type="curve" smooth="yes"/>
      <point x="229" y="429"/>
      <point x="224" y="437"/>
      <point x="224" y="437" type="curve" smooth="yes"/>
      <point x="224" y="438"/>
      <point x="223" y="431"/>
      <point x="222" y="422" type="curve" smooth="yes"/>
      <point x="216" y="367"/>
      <point x="214" y="349"/>
      <point x="212" y="323" type="curve" smooth="yes"/>
      <point x="207" y="272"/>
      <point x="205" y="235"/>
      <point x="205" y="205" type="curve" smooth="yes"/>
      <point x="205" y="188"/>
      <point x="205" y="188"/>
      <point x="208" y="182" type="curve" smooth="yes"/>
      <point x="215" y="168"/>
      <point x="224" y="156"/>
      <point x="234" y="144" type="curve"/>
      <point x="240" y="138" type="line"/>
      <point x="244" y="144" type="line" smooth="yes"/>
      <point x="249" y="152"/>
      <point x="259" y="174"/>
      <point x="263" y="185" type="curve" smooth="yes"/>
      <point x="275" y="217"/>
      <point x="282" y="255"/>
      <point x="284" y="293" type="curve"/>
      <point x="284" y="311" type="line"/>
      <point x="281" y="321" type="line"/>
      <point x="271" y="347"/>
      <point x="252" y="388"/>
    </contour>
  </outline>
</glyph>
<glyph name="H" format="1">
  <advance width="710"/>
  <unicode hex="0048"/>
  <outline>
    <contour>
      <point x="93" y="1674" type="curve"/>
      <point x="168" y="1688"/>
      <point x="230" y="1699"/>
      <point x="230" y="1699" type="curve" smooth="yes"/>
      <point x="231" y="1699"/>
      <point x="231" y="1696"/>
      <point x="232" y="1692" type="curve" smooth="yes"/>
      <point x="233" y="1688"/>
      <point x="238" y="1660"/>
      <point x="243" y="1630" type="curve" smooth="yes"/>
      <point x="253" y="1575" type="line"/>
      <point x="253" y="1612" type="line"/>
      <point x="253" y="1650" type="line"/>
      <point x="256" y="1651" type="line"/>
      <point x="269" y="1653"/>
      <point x="530" y="1699"/>
      <point x="530" y="1699" type="curve"/>
      <point x="530" y="1699"/>
      <point x="536" y="1665"/>
      <point x="543" y="1624" type="curve" smooth="yes"/>
      <point x="556" y="1550" type="line"/>
      <point x="556" y="750" type="line"/>
      <point x="556" y="-50" type="line"/>
      <point x="553" y="-51" type="line"/>
      <point x="540" y="-53"/>
      <point x="279" y="-99"/>
      <point x="279" y="-99" type="curve"/>
      <point x="279" y="-99"/>
      <point x="274" y="-71"/>
      <point x="268" y="-36" type="curve" smooth="yes"/>
      <point x="257" y="26" type="line"/>
      <point x="257" y="-12" type="line"/>
      <point x="257" y="-50" type="line"/>
      <point x="254" y="-51" type="line"/>
      <point x="241" y="-53"/>
      <point x="-20" y="-99"/>
      <point x="-20" y="-99" type="curve"/>
      <point x="-20" y="-99"/>
      <point x="-26" y="-65"/>
      <point x="-33" y="-24" type="curve" smooth="yes"/>
      <point x="-46" y="50" type="line"/>
      <point x="-46" y="850" type="line" smooth="yes"/>
      <point x="-46" y="1290"/>
      <point x="-46" y="1650"/>
      <point x="-45" y="1650" type="curve" smooth="yes"/>
      <point x="-45" y="1650"/>
      <point x="17" y="1661"/>
    </contour>
  </outline>
</glyph>
<glyph name="I" format="1">
  <advance width="210"/>
  <unicode hex="0049"/>
  <outline>
    <contour>
      <point x="16" y="1675" type="curve" smooth="yes"/>
      <point x="153" y="1699" type="line"/>
      <point x="304" y="1699" type="line"/>
      <point x="455" y="1699" type="line"/>
      <point x="468" y="1627" type="line" smooth="yes"/>
      <point x="475" y="1587"/>
      <point x="481" y="1554"/>
      <point x="481" y="1552" type="curve" smooth="yes"/>
      <point x="481" y="1551"/>
      <point x="477" y="1550"/>
      <point x="408" y="1538" type="curve" smooth="yes"/>
      <point x="367" y="1530"/>
      <point x="334" y="1525"/>
      <point x="333" y="1524" type="curve" smooth="yes"/>
      <point x="332" y="1524"/>
      <point x="332" y="1380"/>
      <point x="332" y="811" type="curve" smooth="yes"/>
      <point x="332" y="99" type="line"/>
      <point x="394" y="99" type="line"/>
      <point x="455" y="99" type="line"/>
      <point x="468" y="27" type="line" smooth="yes"/>
      <point x="475" y="-13"/>
      <point x="481" y="-46"/>
      <point x="481" y="-48" type="curve" smooth="yes"/>
      <point x="481" y="-49"/>
      <point x="473" y="-51"/>
      <point x="343" y="-74" type="curve" smooth="yes"/>
      <point x="206" y="-98" type="line"/>
      <point x="56" y="-98" type="line"/>
      <point x="-95" y="-98" type="line"/>
      <point x="-95" y="-97"/>
      <point x="-121" y="50"/>
      <point x="-121" y="50" type="curve" smooth="yes"/>
      <point x="-121" y="51"/>
      <point x="-88" y="56"/>
      <point x="-47" y="63" type="curve" smooth="yes"/>
      <point x="-7" y="70"/>
      <point x="26" y="76"/>
      <point x="27" y="77" type="curve"/>
      <point x="29" y="77"/>
      <point x="29" y="112"/>
      <point x="29" y="790" type="curve" smooth="yes"/>
      <point x="29" y="1502" type="line"/>
      <point x="-33" y="1502" type="line"/>
      <point x="-95" y="1502" type="line"/>
      <point x="-95" y="1505" type="line"/>
      <point x="-100" y="1530"/>
      <point x="-121" y="1650"/>
      <point x="-121" y="1650" type="curve" smooth="yes"/>
      <point x="-121" y="1651"/>
      <point x="-59" y="1661"/>
    </contour>
  </outline>
</glyph>
<glyph name="J" format="1">
  <advance width="620"/>
  <unicode hex="004A"/>
  <outline>
    <contour>
      <point x="16" y="1675" type="curve" smooth="yes"/>
      <point x="153" y="1699" type="line"/>
      <point x="304" y="1699" type="line" smooth="yes"/>
      <point x="388" y="1699"/>
      <point x="456" y="1699"/>
      <point x="456" y="1698" type="curve" smooth="yes"/>
      <point x="456" y="1698"/>
      <point x="462" y="1666"/>
      <point x="469" y="1627" type="curve" smooth="yes"/>
      <point x="482" y="1556" type="line"/>
      <point x="482" y="1163" type="line"/>
      <point x="483" y="771" type="line"/>
      <point x="494" y="764" type="line" smooth="yes"/>
      <point x="520" y="748"/>
      <point x="542" y="731"/>
      <point x="564" y="709" type="curve" smooth="yes"/>
      <point x="582" y="692"/>
      <point x="593" y="678"/>
      <point x="606" y="659" type="curve" smooth="yes"/>
      <point x="628" y="626"/>
      <point x="644" y="590"/>
      <point x="653" y="552" type="curve" smooth="yes"/>
      <point x="657" y="536"/>
      <point x="686" y="377"/>
      <point x="689" y="355" type="curve" smooth="yes"/>
      <point x="691" y="336"/>
      <point x="691" y="291"/>
      <point x="689" y="271" type="curve" smooth="yes"/>
      <point x="678" y="185"/>
      <point x="642" y="109"/>
      <point x="585" y="51" type="curve" smooth="yes"/>
      <point x="557" y="23"/>
      <point x="529" y="4"/>
      <point x="495" y="-13" type="curve" smooth="yes"/>
      <point x="469" y="-26"/>
      <point x="450" y="-33"/>
      <point x="424" y="-39" type="curve" smooth="yes"/>
      <point x="409" y="-43"/>
      <point x="124" y="-94"/>
      <point x="102" y="-97" type="curve" smooth="yes"/>
      <point x="85" y="-99"/>
      <point x="29" y="-99"/>
      <point x="13" y="-97" type="curve" smooth="yes"/>
      <point x="-72" y="-87"/>
      <point x="-141" y="-55"/>
      <point x="-198" y="1" type="curve"/>
      <point x="-249" y="53"/>
      <point x="-283" y="118"/>
      <point x="-298" y="193" type="curve" smooth="yes"/>
      <point x="-303" y="219"/>
      <point x="-327" y="359"/>
      <point x="-329" y="371" type="curve" smooth="yes"/>
      <point x="-331" y="388"/>
      <point x="-331" y="434"/>
      <point x="-329" y="451" type="curve" smooth="yes"/>
      <point x="-326" y="476"/>
      <point x="-320" y="503"/>
      <point x="-313" y="525" type="curve" smooth="yes"/>
      <point x="-284" y="614"/>
      <point x="-221" y="686"/>
      <point x="-134" y="729" type="curve"/>
      <point x="-119" y="736" type="line"/>
      <point x="18" y="760" type="line" smooth="yes"/>
      <point x="93" y="773"/>
      <point x="155" y="784"/>
      <point x="156" y="784" type="curve"/>
      <point x="156" y="783"/>
      <point x="182" y="636"/>
      <point x="182" y="635" type="curve" smooth="yes"/>
      <point x="172" y="631" type="line"/>
      <point x="139" y="614"/>
      <point x="104" y="590"/>
      <point x="77" y="565" type="curve"/>
      <point x="16" y="505"/>
      <point x="-20" y="427"/>
      <point x="-27" y="339" type="curve"/>
      <point x="-28" y="323" type="line"/>
      <point x="-25" y="314" type="line"/>
      <point x="-19" y="300"/>
      <point x="-6" y="276"/>
      <point x="3" y="262" type="curve" smooth="yes"/>
      <point x="52" y="184"/>
      <point x="125" y="131"/>
      <point x="214" y="109" type="curve" smooth="yes"/>
      <point x="226" y="106" type="line"/>
      <point x="230" y="109" type="line"/>
      <point x="255" y="125"/>
      <point x="285" y="153"/>
      <point x="305" y="177" type="curve" smooth="yes"/>
      <point x="339" y="219"/>
      <point x="363" y="268"/>
      <point x="376" y="321" type="curve" smooth="yes"/>
      <point x="382" y="345"/>
      <point x="387" y="373"/>
      <point x="387" y="393" type="curve"/>
      <point x="388" y="403" type="line"/>
      <point x="380" y="418" type="line"/>
      <point x="345" y="489"/>
      <point x="293" y="542"/>
      <point x="220" y="579" type="curve" smooth="yes"/>
      <point x="212" y="584"/>
      <point x="205" y="587"/>
      <point x="205" y="588" type="curve" smooth="yes"/>
      <point x="205" y="588"/>
      <point x="199" y="621"/>
      <point x="192" y="662" type="curve" smooth="yes"/>
      <point x="179" y="736" type="line"/>
      <point x="179" y="1119" type="line"/>
      <point x="179" y="1502" type="line"/>
      <point x="42" y="1502" type="line"/>
      <point x="-95" y="1502" type="line"/>
      <point x="-95" y="1505" type="line"/>
      <point x="-100" y="1530"/>
      <point x="-121" y="1650"/>
      <point x="-121" y="1650" type="curve" smooth="yes"/>
      <point x="-121" y="1651"/>
      <point x="-59" y="1661"/>
    </contour>
  </outline>
</glyph>
<glyph name="K" format="1">
  <advance width="635"/>
  <unicode hex="004B"/>
  <outline>
    <contour>
      <point x="93" y="1674" type="curve"/>
      <point x="168" y="1688"/>
      <point x="230" y="1699"/>
      <point x="230" y="1699" type="curve" smooth="yes"/>
      <point x="231" y="1699"/>
      <point x="231" y="1699"/>
      <point x="231" y="1698" type="curve" smooth="yes"/>
      <point x="231" y="1697"/>
      <point x="243" y="1629"/>
      <point x="244" y="1626" type="curve" smooth="yes"/>
      <point x="244" y="1624"/>
      <point x="245" y="1626"/>
      <point x="249" y="1636" type="curve" smooth="yes"/>
      <point x="251" y="1643"/>
      <point x="253" y="1649"/>
      <point x="253" y="1650" type="curve"/>
      <point x="254" y="1650"/>
      <point x="529" y="1699"/>
      <point x="530" y="1699" type="curve" smooth="yes"/>
      <point x="530" y="1699"/>
      <point x="536" y="1665"/>
      <point x="543" y="1624" type="curve" smooth="yes"/>
      <point x="556" y="1550" type="line"/>
      <point x="416" y="1122" type="line" smooth="yes"/>
      <point x="339" y="886"/>
      <point x="275" y="692"/>
      <point x="275" y="690" type="curve" smooth="yes"/>
      <point x="274" y="686"/>
      <point x="275" y="683"/>
      <point x="402" y="392" type="curve" smooth="yes"/>
      <point x="530" y="99" type="line"/>
      <point x="543" y="25" type="line" smooth="yes"/>
      <point x="550" y="-16"/>
      <point x="556" y="-50"/>
      <point x="556" y="-50" type="curve" smooth="yes"/>
      <point x="555" y="-50"/>
      <point x="494" y="-61"/>
      <point x="419" y="-74" type="curve" smooth="yes"/>
      <point x="345" y="-87"/>
      <point x="283" y="-98"/>
      <point x="281" y="-98" type="curve"/>
      <point x="280" y="-99"/>
      <point x="278" y="-97"/>
      <point x="268" y="-74" type="curve" smooth="yes"/>
      <point x="263" y="-60"/>
      <point x="257" y="-49"/>
      <point x="257" y="-50" type="curve"/>
      <point x="256" y="-50"/>
      <point x="-19" y="-99"/>
      <point x="-20" y="-99" type="curve" smooth="yes"/>
      <point x="-20" y="-99"/>
      <point x="-26" y="-65"/>
      <point x="-33" y="-24" type="curve" smooth="yes"/>
      <point x="-46" y="50" type="line"/>
      <point x="-46" y="850" type="line" smooth="yes"/>
      <point x="-46" y="1290"/>
      <point x="-46" y="1650"/>
      <point x="-45" y="1650" type="curve" smooth="yes"/>
      <point x="-45" y="1650"/>
      <point x="17" y="1661"/>
    </contour>
  </outline>
</glyph>
<glyph name="L" format="1">
  <advance width="635"/>
  <unicode hex="004C"/>
  <outline>
    <contour>
      <point x="93" y="1674" type="curve"/>
      <point x="168" y="1688"/>
      <point x="230" y="1699"/>
      <point x="230" y="1699" type="curve" smooth="yes"/>
      <point x="231" y="1699"/>
      <point x="231" y="1699"/>
      <point x="231" y="1698" type="curve" smooth="yes"/>
      <point x="231" y="1698"/>
      <point x="237" y="1664"/>
      <point x="244" y="1624" type="curve" smooth="yes"/>
      <point x="257" y="1550" type="line"/>
      <point x="257" y="824" type="line"/>
      <point x="257" y="99" type="line"/>
      <point x="393" y="99" type="line"/>
      <point x="530" y="99" type="line"/>
      <point x="530" y="96" type="line"/>
      <point x="535" y="71"/>
      <point x="556" y="-49"/>
      <point x="556" y="-49" type="curve" smooth="yes"/>
      <point x="556" y="-50"/>
      <point x="494" y="-61"/>
      <point x="418" y="-74" type="curve" smooth="yes"/>
      <point x="281" y="-98" type="line"/>
      <point x="130" y="-98" type="line" smooth="yes"/>
      <point x="48" y="-98"/>
      <point x="-20" y="-98"/>
      <point x="-20" y="-97" type="curve" smooth="yes"/>
      <point x="-20" y="-97"/>
      <point x="-26" y="-64"/>
      <point x="-33" y="-23" type="curve" smooth="yes"/>
      <point x="-46" y="51" type="line"/>
      <point x="-46" y="850" type="line" smooth="yes"/>
      <point x="-46" y="1290"/>
      <point x="-46" y="1650"/>
      <point x="-45" y="1650" type="curve" smooth="yes"/>
      <point x="-45" y="1650"/>
      <point x="17" y="1661"/>
    </contour>
  </outline>
</glyph>
<glyph name="M" format="1">
  <advance width="810"/>
  <unicode hex="004D"/>
  <outline>
    <contour>
      <point x="93" y="1674" type="curve"/>
      <point x="168" y="1688"/>
      <point x="230" y="1699"/>
      <point x="230" y="1699" type="curve"/>
      <point x="232" y="1693" type="line" smooth="yes"/>
      <point x="232" y="1690"/>
      <point x="236" y="1670"/>
      <point x="240" y="1649" type="curve" smooth="yes"/>
      <point x="246" y="1610" type="line"/>
      <point x="250" y="1629" type="line"/>
      <point x="251" y="1640"/>
      <point x="253" y="1649"/>
      <point x="253" y="1650" type="curve"/>
      <point x="254" y="1650"/>
      <point x="529" y="1699"/>
      <point x="530" y="1699" type="curve" smooth="yes"/>
      <point x="530" y="1699"/>
      <point x="536" y="1665"/>
      <point x="543" y="1624" type="curve" smooth="yes"/>
      <point x="556" y="1550" type="line"/>
      <point x="556" y="750" type="line"/>
      <point x="556" y="-50" type="line"/>
      <point x="553" y="-51" type="line"/>
      <point x="540" y="-53"/>
      <point x="279" y="-99"/>
      <point x="279" y="-99" type="curve"/>
      <point x="279" y="-99"/>
      <point x="274" y="-71"/>
      <point x="268" y="-36" type="curve" smooth="yes"/>
      <point x="257" y="26" type="line"/>
      <point x="257" y="-12" type="line"/>
      <point x="257" y="-50" type="line"/>
      <point x="254" y="-51" type="line"/>
      <point x="241" y="-53"/>
      <point x="-20" y="-99"/>
      <point x="-20" y="-99" type="curve"/>
      <point x="-20" y="-99"/>
      <point x="-26" y="-65"/>
      <point x="-33" y="-24" type="curve" smooth="yes"/>
      <point x="-46" y="50" type="line"/>
      <point x="-46" y="850" type="line" smooth="yes"/>
      <point x="-46" y="1290"/>
      <point x="-46" y="1650"/>
      <point x="-45" y="1650" type="curve" smooth="yes"/>
      <point x="-45" y="1650"/>
      <point x="17" y="1661"/>
    </contour>
  </outline>
</glyph>
<glyph name="N" format="1">
  <advance width="710"/>
  <unicode hex="004E"/>
  <outline>
    <contour>
      <point x="93" y="1674" type="curve"/>
      <point x="168" y="1688"/>
      <point x="230" y="1699"/>
      <point x="230" y="1699" type="curve"/>
      <point x="230" y="1699"/>
      <point x="232" y="1693"/>
      <point x="233" y="1687" type="curve" smooth="yes"/>
      <point x="234" y="1680"/>
      <point x="239" y="1654"/>
      <point x="244" y="1628" type="curve" smooth="yes"/>
      <point x="253" y="1582" type="line"/>
      <point x="253" y="1616" type="line"/>
      <point x="253" y="1650" type="line"/>
      <point x="256" y="1651" type="line"/>
      <point x="269" y="1653"/>
      <point x="530" y="1699"/>
      <point x="530" y="1699" type="curve"/>
      <point x="530" y="1699"/>
      <point x="536" y="1665"/>
      <point x="543" y="1624" type="curve" smooth="yes"/>
      <point x="556" y="1550" type="line"/>
      <point x="556" y="750" type="line"/>
      <point x="556" y="-50" type="line"/>
      <point x="553" y="-51" type="line"/>
      <point x="540" y="-53"/>
      <point x="279" y="-99"/>
      <point x="279" y="-99" type="curve"/>
      <point x="279" y="-99"/>
      <point x="274" y="-72"/>
      <point x="268" y="-40" type="curve" smooth="yes"/>
      <point x="257" y="19" type="line"/>
      <point x="257" y="-16" type="line"/>
      <point x="257" y="-50" type="line"/>
      <point x="254" y="-51" type="line"/>
      <point x="241" y="-53"/>
      <point x="-20" y="-99"/>
      <point x="-20" y="-99" type="curve"/>
      <point x="-20" y="-99"/>
      <point x="-26" y="-65"/>
      <point x="-33" y="-24" type="curve" smooth="yes"/>
      <point x="-46" y="50" type="line"/>
      <point x="-46" y="850" type="line" smooth="yes"/>
      <point x="-46" y="1290"/>
      <point x="-46" y="1650"/>
      <point x="-45" y="1650" type="curve" smooth="yes"/>
      <point x="-45" y="1650"/>
      <point x="17" y="1661"/>
    </contour>
  </outline>
</glyph>
<glyph name="O" format="1">
  <advance width="680"/>
  <unicode hex="004F"/>
  <outline>
    <contour>
      <point x="342" y="1761" type="curve" smooth="yes"/>
      <point x="354" y="1762"/>
      <point x="379" y="1762"/>
      <point x="392" y="1760" type="curve" smooth="yes"/>
      <point x="463" y="1751"/>
      <point x="523" y="1708"/>
      <point x="555" y="1643" type="curve" smooth="yes"/>
      <point x="563" y="1627"/>
      <point x="567" y="1614"/>
      <point x="571" y="1598" type="curve" smooth="yes"/>
      <point x="574" y="1586"/>
      <point x="602" y="1429"/>
      <point x="604" y="1413" type="curve" smooth="yes"/>
      <point x="606" y="1397"/>
      <point x="606" y="1352"/>
      <point x="604" y="1334" type="curve" smooth="yes"/>
      <point x="597" y="1274"/>
      <point x="583" y="1221"/>
      <point x="548" y="1112" type="curve"/>
      <point x="528" y="1054"/>
      <point x="520" y="1025"/>
      <point x="510" y="985" type="curve" smooth="yes"/>
      <point x="483" y="876"/>
      <point x="472" y="773"/>
      <point x="477" y="678" type="curve" smooth="yes"/>
      <point x="478" y="656" type="line"/>
      <point x="483" y="639" type="line" smooth="yes"/>
      <point x="493" y="606"/>
      <point x="507" y="571"/>
      <point x="525" y="536" type="curve"/>
      <point x="537" y="510"/>
      <point x="549" y="489"/>
      <point x="579" y="436" type="curve" smooth="yes"/>
      <point x="607" y="386"/>
      <point x="614" y="373"/>
      <point x="627" y="348" type="curve" smooth="yes"/>
      <point x="649" y="305"/>
      <point x="662" y="270"/>
      <point x="671" y="236" type="curve" smooth="yes"/>
      <point x="674" y="223"/>
      <point x="703" y="63"/>
      <point x="705" y="45" type="curve" smooth="yes"/>
      <point x="707" y="30"/>
      <point x="707" y="-9"/>
      <point x="705" y="-23" type="curve" smooth="yes"/>
      <point x="696" y="-80"/>
      <point x="672" y="-136"/>
      <point x="637" y="-179" type="curve" smooth="yes"/>
      <point x="627" y="-192"/>
      <point x="604" y="-215"/>
      <point x="591" y="-225" type="curve" smooth="yes"/>
      <point x="552" y="-255"/>
      <point x="507" y="-276"/>
      <point x="462" y="-285" type="curve" smooth="yes"/>
      <point x="446" y="-288"/>
      <point x="169" y="-337"/>
      <point x="157" y="-339" type="curve" smooth="yes"/>
      <point x="142" y="-341"/>
      <point x="103" y="-342"/>
      <point x="87" y="-340" type="curve" smooth="yes"/>
      <point x="20" y="-334"/>
      <point x="-38" y="-311"/>
      <point x="-89" y="-270" type="curve" smooth="yes"/>
      <point x="-100" y="-261"/>
      <point x="-122" y="-238"/>
      <point x="-131" y="-227" type="curve" smooth="yes"/>
      <point x="-160" y="-191"/>
      <point x="-180" y="-150"/>
      <point x="-192" y="-103" type="curve" smooth="yes"/>
      <point x="-196" y="-87"/>
      <point x="-225" y="74"/>
      <point x="-226" y="90" type="curve" smooth="yes"/>
      <point x="-231" y="144"/>
      <point x="-219" y="201"/>
      <point x="-188" y="268" type="curve" smooth="yes"/>
      <point x="-175" y="298"/>
      <point x="-161" y="324"/>
      <point x="-131" y="377" type="curve" smooth="yes"/>
      <point x="-91" y="446"/>
      <point x="-76" y="474"/>
      <point x="-63" y="504" type="curve" smooth="yes"/>
      <point x="-26" y="583"/>
      <point x="-5" y="666"/>
      <point x="2" y="762" type="curve" smooth="yes"/>
      <point x="6" y="818"/>
      <point x="3" y="910"/>
      <point x="-5" y="941" type="curve" smooth="yes"/>
      <point x="-14" y="977"/>
      <point x="-25" y="1012"/>
      <point x="-40" y="1061" type="curve"/>
      <point x="-62" y="1126"/>
      <point x="-72" y="1159"/>
      <point x="-80" y="1194" type="curve" smooth="yes"/>
      <point x="-87" y="1221"/>
      <point x="-89" y="1230"/>
      <point x="-105" y="1319" type="curve" smooth="yes"/>
      <point x="-119" y="1402"/>
      <point x="-122" y="1417"/>
      <point x="-124" y="1439" type="curve" smooth="yes"/>
      <point x="-126" y="1454"/>
      <point x="-126" y="1499"/>
      <point x="-124" y="1513" type="curve" smooth="yes"/>
      <point x="-117" y="1570"/>
      <point x="-96" y="1615"/>
      <point x="-59" y="1652" type="curve" smooth="yes"/>
      <point x="-32" y="1679"/>
      <point x="0" y="1698"/>
      <point x="37" y="1707" type="curve" smooth="yes"/>
      <point x="46" y="1709"/>
      <point x="330" y="1760"/>
    </contour>
    <contour>
      <point x="250" y="1516" type="curve" smooth="yes"/>
      <point x="245" y="1520"/>
      <point x="238" y="1525"/>
      <point x="234" y="1528" type="curve" smooth="yes"/>
      <point x="226" y="1533" type="line"/>
      <point x="221" y="1525" type="line"/>
      <point x="195" y="1490"/>
      <point x="182" y="1451"/>
      <point x="178" y="1403" type="curve" smooth="yes"/>
      <point x="177" y="1395"/>
      <point x="177" y="1383"/>
      <point x="177" y="1375" type="curve" smooth="yes"/>
      <point x="178" y="1361" type="line"/>
      <point x="186" y="1333" type="line" smooth="yes"/>
      <point x="191" y="1317"/>
      <point x="200" y="1287"/>
      <point x="207" y="1266" type="curve" smooth="yes"/>
      <point x="219" y="1231"/>
      <point x="230" y="1195"/>
      <point x="233" y="1185" type="curve" smooth="yes"/>
      <point x="234" y="1181" type="line"/>
      <point x="243" y="1206" type="line"/>
      <point x="281" y="1321"/>
      <point x="296" y="1381"/>
      <point x="301" y="1439" type="curve" smooth="yes"/>
      <point x="302" y="1451" type="line"/>
      <point x="298" y="1457" type="line"/>
      <point x="285" y="1480"/>
      <point x="268" y="1500"/>
    </contour>
    <contour>
      <point x="264" y="358" type="curve" smooth="yes"/>
      <point x="261" y="365"/>
      <point x="255" y="379"/>
      <point x="251" y="390" type="curve" smooth="yes"/>
      <point x="243" y="409" type="line"/>
      <point x="233" y="388" type="line"/>
      <point x="219" y="361"/>
      <point x="210" y="343"/>
      <point x="179" y="289" type="curve" smooth="yes"/>
      <point x="147" y="233"/>
      <point x="137" y="214"/>
      <point x="124" y="189" type="curve" smooth="yes"/>
      <point x="99" y="137"/>
      <point x="85" y="95"/>
      <point x="79" y="54" type="curve" smooth="yes"/>
      <point x="77" y="40" type="line"/>
      <point x="80" y="33" type="line" smooth="yes"/>
      <point x="89" y="14"/>
      <point x="105" y="-11"/>
      <point x="119" y="-29" type="curve" smooth="yes"/>
      <point x="130" y="-43"/>
      <point x="152" y="-64"/>
      <point x="165" y="-75" type="curve" smooth="yes"/>
      <point x="194" y="-98"/>
      <point x="226" y="-115"/>
      <point x="261" y="-127" type="curve" smooth="yes"/>
      <point x="274" y="-131"/>
      <point x="278" y="-132"/>
      <point x="279" y="-131" type="curve" smooth="yes"/>
      <point x="284" y="-129"/>
      <point x="307" y="-109"/>
      <point x="317" y="-99" type="curve" smooth="yes"/>
      <point x="355" y="-59"/>
      <point x="381" y="-10"/>
      <point x="396" y="46" type="curve" smooth="yes"/>
      <point x="399" y="59"/>
      <point x="403" y="83"/>
      <point x="403" y="90" type="curve" smooth="yes"/>
      <point x="403" y="96"/>
      <point x="382" y="142"/>
      <point x="362" y="178" type="curve" smooth="yes"/>
      <point x="358" y="186"/>
      <point x="344" y="212"/>
      <point x="331" y="234" type="curve" smooth="yes"/>
      <point x="293" y="301"/>
      <point x="278" y="329"/>
    </contour>
  </outline>
</glyph>
<glyph name="P" format="1">
  <advance width="650"/>
  <unicode hex="0050"/>
  <outline>
    <contour>
      <point x="93" y="1674" type="curve"/>
      <point x="168" y="1688"/>
      <point x="230" y="1699"/>
      <point x="232" y="1698" type="curve" smooth="yes"/>
      <point x="235" y="1697"/>
      <point x="267" y="1681"/>
      <point x="280" y="1674" type="curve" smooth="yes"/>
      <point x="296" y="1665"/>
      <point x="317" y="1651"/>
      <point x="332" y="1640" type="curve" smooth="yes"/>
      <point x="376" y="1607"/>
      <point x="418" y="1562"/>
      <point x="448" y="1517" type="curve" smooth="yes"/>
      <point x="482" y="1465"/>
      <point x="507" y="1406"/>
      <point x="519" y="1347" type="curve" smooth="yes"/>
      <point x="522" y="1333"/>
      <point x="550" y="1175"/>
      <point x="552" y="1160" type="curve" smooth="yes"/>
      <point x="556" y="1136"/>
      <point x="556" y="1123"/>
      <point x="556" y="1092" type="curve" smooth="yes"/>
      <point x="556" y="1069"/>
      <point x="556" y="1056"/>
      <point x="555" y="1044" type="curve" smooth="yes"/>
      <point x="542" y="927"/>
      <point x="493" y="823"/>
      <point x="412" y="741" type="curve"/>
      <point x="371" y="701"/>
      <point x="330" y="671"/>
      <point x="279" y="646" type="curve"/>
      <point x="257" y="636" type="line"/>
      <point x="257" y="293" type="line"/>
      <point x="257" y="-50" type="line"/>
      <point x="254" y="-51" type="line"/>
      <point x="241" y="-53"/>
      <point x="-20" y="-99"/>
      <point x="-20" y="-99" type="curve"/>
      <point x="-20" y="-99"/>
      <point x="-26" y="-65"/>
      <point x="-33" y="-24" type="curve" smooth="yes"/>
      <point x="-46" y="50" type="line"/>
      <point x="-46" y="850" type="line" smooth="yes"/>
      <point x="-46" y="1290"/>
      <point x="-46" y="1650"/>
      <point x="-45" y="1650" type="curve" smooth="yes"/>
      <point x="-45" y="1650"/>
      <point x="17" y="1661"/>
    </contour>
  </outline>
</glyph>
<glyph name="Q" format="1">
  <advance width="680"/>
  <unicode hex="0051"/>
  <outline>
    <contour>
      <point x="340" y="1937" type="curve" smooth="yes"/>
      <point x="342" y="1938"/>
      <point x="356" y="1938"/>
      <point x="371" y="1937" type="curve"/>
      <point x="399" y="1937"/>
      <point x="412" y="1936"/>
      <point x="437" y="1930" type="curve" smooth="yes"/>
      <point x="492" y="1919"/>
      <point x="546" y="1890"/>
      <point x="586" y="1852" type="curve" smooth="yes"/>
      <point x="631" y="1809"/>
      <point x="664" y="1749"/>
      <point x="676" y="1685" type="curve" smooth="yes"/>
      <point x="680" y="1668"/>
      <point x="705" y="1527"/>
      <point x="706" y="1516" type="curve" smooth="yes"/>
      <point x="708" y="1504"/>
      <point x="708" y="1464"/>
      <point x="706" y="1451" type="curve" smooth="yes"/>
      <point x="702" y="1420"/>
      <point x="693" y="1387"/>
      <point x="680" y="1353" type="curve" smooth="yes"/>
      <point x="664" y="1312"/>
      <point x="646" y="1278"/>
      <point x="599" y="1197" type="curve" smooth="yes"/>
      <point x="556" y="1124"/>
      <point x="538" y="1089"/>
      <point x="522" y="1051" type="curve" smooth="yes"/>
      <point x="482" y="958"/>
      <point x="462" y="866"/>
      <point x="460" y="763" type="curve"/>
      <point x="460" y="733" type="line"/>
      <point x="468" y="728" type="line"/>
      <point x="531" y="683"/>
      <point x="586" y="624"/>
      <point x="626" y="557" type="curve" smooth="yes"/>
      <point x="656" y="507"/>
      <point x="678" y="448"/>
      <point x="690" y="392" type="curve" smooth="yes"/>
      <point x="695" y="370"/>
      <point x="723" y="210"/>
      <point x="725" y="193" type="curve" smooth="yes"/>
      <point x="734" y="115"/>
      <point x="727" y="41"/>
      <point x="703" y="-40" type="curve" smooth="yes"/>
      <point x="689" y="-84"/>
      <point x="687" y="-93"/>
      <point x="676" y="-114" type="curve" smooth="yes"/>
      <point x="665" y="-137"/>
      <point x="654" y="-155"/>
      <point x="636" y="-178" type="curve" smooth="yes"/>
      <point x="631" y="-184"/>
      <point x="624" y="-193"/>
      <point x="621" y="-196" type="curve" smooth="yes"/>
      <point x="602" y="-221"/>
      <point x="574" y="-251"/>
      <point x="552" y="-270" type="curve"/>
      <point x="542" y="-278" type="line"/>
      <point x="404" y="-303" type="line" smooth="yes"/>
      <point x="328" y="-316"/>
      <point x="266" y="-327"/>
      <point x="265" y="-327" type="curve"/>
      <point x="265" y="-326"/>
      <point x="264" y="-325"/>
      <point x="264" y="-323" type="curve" smooth="yes"/>
      <point x="264" y="-317"/>
      <point x="267" y="-317"/>
      <point x="216" y="-326" type="curve" smooth="yes"/>
      <point x="148" y="-338"/>
      <point x="150" y="-337"/>
      <point x="115" y="-337" type="curve" smooth="yes"/>
      <point x="82" y="-337"/>
      <point x="75" y="-337"/>
      <point x="46" y="-331" type="curve" smooth="yes"/>
      <point x="-11" y="-320"/>
      <point x="-65" y="-291"/>
      <point x="-106" y="-252" type="curve" smooth="yes"/>
      <point x="-151" y="-209"/>
      <point x="-184" y="-149"/>
      <point x="-196" y="-85" type="curve" smooth="yes"/>
      <point x="-200" y="-68"/>
      <point x="-225" y="73"/>
      <point x="-226" y="85" type="curve"/>
      <point x="-228" y="96"/>
      <point x="-228" y="136"/>
      <point x="-226" y="149" type="curve" smooth="yes"/>
      <point x="-222" y="180"/>
      <point x="-213" y="213"/>
      <point x="-200" y="247" type="curve" smooth="yes"/>
      <point x="-184" y="288"/>
      <point x="-166" y="322"/>
      <point x="-119" y="403" type="curve" smooth="yes"/>
      <point x="-86" y="458"/>
      <point x="-75" y="479"/>
      <point x="-61" y="507" type="curve" smooth="yes"/>
      <point x="-21" y="588"/>
      <point x="4" y="669"/>
      <point x="15" y="758" type="curve" smooth="yes"/>
      <point x="19" y="797"/>
      <point x="21" y="849"/>
      <point x="19" y="886" type="curve" smooth="yes"/>
      <point x="18" y="908"/>
      <point x="18" y="908"/>
      <point x="13" y="924" type="curve" smooth="yes"/>
      <point x="4" y="955"/>
      <point x="-8" y="987"/>
      <point x="-23" y="1020" type="curve" smooth="yes"/>
      <point x="-37" y="1051"/>
      <point x="-55" y="1085"/>
      <point x="-89" y="1143" type="curve" smooth="yes"/>
      <point x="-99" y="1159"/>
      <point x="-112" y="1182"/>
      <point x="-119" y="1194" type="curve" smooth="yes"/>
      <point x="-158" y="1262"/>
      <point x="-179" y="1310"/>
      <point x="-191" y="1357" type="curve" smooth="yes"/>
      <point x="-195" y="1371"/>
      <point x="-223" y="1529"/>
      <point x="-226" y="1551" type="curve" smooth="yes"/>
      <point x="-228" y="1565"/>
      <point x="-228" y="1603"/>
      <point x="-226" y="1616" type="curve" smooth="yes"/>
      <point x="-219" y="1670"/>
      <point x="-197" y="1724"/>
      <point x="-165" y="1766" type="curve" smooth="yes"/>
      <point x="-122" y="1823"/>
      <point x="-61" y="1863"/>
      <point x="10" y="1880" type="curve" smooth="yes"/>
      <point x="25" y="1884"/>
      <point x="313" y="1934"/>
      <point x="327" y="1936" type="curve" smooth="yes"/>
      <point x="332" y="1937"/>
      <point x="338" y="1937"/>
    </contour>
    <contour>
      <point x="219" y="1724" type="curve" smooth="yes"/>
      <point x="211" y="1727"/>
      <point x="203" y="1729"/>
      <point x="203" y="1729" type="curve" smooth="yes"/>
      <point x="200" y="1729"/>
      <point x="176" y="1709"/>
      <point x="162" y="1694" type="curve" smooth="yes"/>
      <point x="140" y="1672"/>
      <point x="123" y="1647"/>
      <point x="108" y="1618" type="curve" smooth="yes"/>
      <point x="103" y="1607"/>
      <point x="97" y="1593"/>
      <point x="95" y="1586" type="curve" smooth="yes"/>
      <point x="85" y="1562"/>
      <point x="78" y="1531"/>
      <point x="76" y="1511" type="curve"/>
      <point x="76" y="1503" type="line"/>
      <point x="82" y="1488" type="line"/>
      <point x="96" y="1456"/>
      <point x="117" y="1416"/>
      <point x="153" y="1354" type="curve" smooth="yes"/>
      <point x="192" y="1288"/>
      <point x="201" y="1272"/>
      <point x="216" y="1240" type="curve"/>
      <point x="223" y="1228"/>
      <point x="230" y="1212"/>
      <point x="233" y="1206" type="curve"/>
      <point x="235" y="1199"/>
      <point x="238" y="1194"/>
      <point x="238" y="1194" type="curve"/>
      <point x="238" y="1194"/>
      <point x="241" y="1199"/>
      <point x="245" y="1206" type="curve" smooth="yes"/>
      <point x="254" y="1225"/>
      <point x="270" y="1253"/>
      <point x="295" y="1296" type="curve" smooth="yes"/>
      <point x="328" y="1353"/>
      <point x="337" y="1369"/>
      <point x="351" y="1397" type="curve" smooth="yes"/>
      <point x="381" y="1455"/>
      <point x="395" y="1497"/>
      <point x="402" y="1543" type="curve" smooth="yes"/>
      <point x="404" y="1557" type="line"/>
      <point x="397" y="1571" type="line" smooth="yes"/>
      <point x="360" y="1645"/>
      <point x="298" y="1698"/>
    </contour>
    <contour>
      <point x="247" y="394" type="curve"/>
      <point x="245" y="401"/>
      <point x="242" y="406"/>
      <point x="242" y="406" type="curve"/>
      <point x="242" y="406"/>
      <point x="239" y="401"/>
      <point x="236" y="394" type="curve" smooth="yes"/>
      <point x="226" y="375"/>
      <point x="210" y="347"/>
      <point x="185" y="304" type="curve" smooth="yes"/>
      <point x="152" y="247"/>
      <point x="143" y="231"/>
      <point x="129" y="203" type="curve" smooth="yes"/>
      <point x="99" y="145"/>
      <point x="85" y="103"/>
      <point x="78" y="57" type="curve" smooth="yes"/>
      <point x="76" y="43" type="line"/>
      <point x="83" y="29" type="line" smooth="yes"/>
      <point x="121" y="-46"/>
      <point x="186" y="-101"/>
      <point x="267" y="-126" type="curve"/>
      <point x="278" y="-129" type="line"/>
      <point x="284" y="-125" type="line" smooth="yes"/>
      <point x="293" y="-118"/>
      <point x="308" y="-105"/>
      <point x="318" y="-95" type="curve" smooth="yes"/>
      <point x="342" y="-70"/>
      <point x="376" y="-9"/>
      <point x="394" y="42" type="curve" smooth="yes"/>
      <point x="398" y="54"/>
      <point x="402" y="74"/>
      <point x="404" y="89" type="curve"/>
      <point x="404" y="97" type="line"/>
      <point x="398" y="112" type="line"/>
      <point x="384" y="144"/>
      <point x="363" y="184"/>
      <point x="327" y="247" type="curve"/>
      <point x="288" y="312"/>
      <point x="279" y="328"/>
      <point x="264" y="360" type="curve"/>
      <point x="257" y="372"/>
      <point x="250" y="388"/>
    </contour>
  </outline>
</glyph>
<glyph name="R" format="1">
  <advance width="665"/>
  <unicode hex="0052"/>
  <outline>
    <contour>
      <point x="93" y="1674" type="curve"/>
      <point x="168" y="1688"/>
      <point x="230" y="1699"/>
      <point x="232" y="1698" type="curve" smooth="yes"/>
      <point x="235" y="1697"/>
      <point x="267" y="1681"/>
      <point x="280" y="1674" type="curve" smooth="yes"/>
      <point x="296" y="1665"/>
      <point x="317" y="1651"/>
      <point x="332" y="1640" type="curve" smooth="yes"/>
      <point x="376" y="1607"/>
      <point x="418" y="1562"/>
      <point x="448" y="1517" type="curve" smooth="yes"/>
      <point x="482" y="1465"/>
      <point x="507" y="1406"/>
      <point x="519" y="1347" type="curve" smooth="yes"/>
      <point x="522" y="1333"/>
      <point x="550" y="1175"/>
      <point x="552" y="1160" type="curve" smooth="yes"/>
      <point x="556" y="1136"/>
      <point x="556" y="1123"/>
      <point x="556" y="1092" type="curve" smooth="yes"/>
      <point x="556" y="1069"/>
      <point x="556" y="1056"/>
      <point x="555" y="1044" type="curve" smooth="yes"/>
      <point x="545" y="951"/>
      <point x="511" y="866"/>
      <point x="456" y="793" type="curve" smooth="yes"/>
      <point x="436" y="766"/>
      <point x="407" y="735"/>
      <point x="383" y="715" type="curve" smooth="yes"/>
      <point x="357" y="693"/>
      <point x="326" y="671"/>
      <point x="298" y="656" type="curve" smooth="yes"/>
      <point x="289" y="651" type="line"/>
      <point x="291" y="646" type="line" smooth="yes"/>
      <point x="292" y="644"/>
      <point x="346" y="519"/>
      <point x="412" y="370" type="curve"/>
      <point x="530" y="99" type="line"/>
      <point x="543" y="25" type="line" smooth="yes"/>
      <point x="550" y="-16"/>
      <point x="556" y="-49"/>
      <point x="556" y="-50" type="curve"/>
      <point x="555" y="-50"/>
      <point x="290" y="-97"/>
      <point x="282" y="-98" type="curve" smooth="yes"/>
      <point x="280" y="-98"/>
      <point x="279" y="-98"/>
      <point x="269" y="-73" type="curve" smooth="yes"/>
      <point x="263" y="-59"/>
      <point x="257" y="-48"/>
      <point x="257" y="-49" type="curve" smooth="yes"/>
      <point x="256" y="-50"/>
      <point x="-19" y="-99"/>
      <point x="-20" y="-99" type="curve" smooth="yes"/>
      <point x="-20" y="-99"/>
      <point x="-26" y="-65"/>
      <point x="-33" y="-24" type="curve" smooth="yes"/>
      <point x="-46" y="50" type="line"/>
      <point x="-46" y="850" type="line" smooth="yes"/>
      <point x="-46" y="1290"/>
      <point x="-46" y="1650"/>
      <point x="-45" y="1650" type="curve" smooth="yes"/>
      <point x="-45" y="1650"/>
      <point x="17" y="1661"/>
    </contour>
  </outline>
</glyph>
<glyph name="S" format="1">
  <advance width="620"/>
  <unicode hex="0053"/>
  <outline>
    <contour>
      <point x="285" y="2258" type="curve" smooth="yes"/>
      <point x="304" y="2259"/>
      <point x="363" y="2258"/>
      <point x="381" y="2257" type="curve" smooth="yes"/>
      <point x="453" y="2249"/>
      <point x="515" y="2232"/>
      <point x="576" y="2202" type="curve" smooth="yes"/>
      <point x="626" y="2177"/>
      <point x="666" y="2149"/>
      <point x="705" y="2111" type="curve" smooth="yes"/>
      <point x="781" y="2036"/>
      <point x="832" y="1939"/>
      <point x="856" y="1823" type="curve" smooth="yes"/>
      <point x="860" y="1804"/>
      <point x="886" y="1654"/>
      <point x="890" y="1632" type="curve"/>
      <point x="894" y="1600"/>
      <point x="898" y="1556"/>
      <point x="898" y="1529" type="curve" smooth="yes"/>
      <point x="898" y="1483"/>
      <point x="890" y="1435"/>
      <point x="875" y="1390" type="curve" smooth="yes"/>
      <point x="830" y="1254"/>
      <point x="719" y="1147"/>
      <point x="581" y="1107" type="curve" smooth="yes"/>
      <point x="559" y="1100"/>
      <point x="550" y="1099"/>
      <point x="432" y="1078" type="curve" smooth="yes"/>
      <point x="370" y="1067"/>
      <point x="320" y="1058"/>
      <point x="319" y="1058" type="curve" smooth="yes"/>
      <point x="319" y="1058"/>
      <point x="322" y="1051"/>
      <point x="327" y="1044" type="curve" smooth="yes"/>
      <point x="331" y="1037"/>
      <point x="350" y="1004"/>
      <point x="369" y="971" type="curve" smooth="yes"/>
      <point x="430" y="864"/>
      <point x="455" y="824"/>
      <point x="493" y="774" type="curve" smooth="yes"/>
      <point x="525" y="731"/>
      <point x="549" y="702"/>
      <point x="638" y="600" type="curve" smooth="yes"/>
      <point x="686" y="546"/>
      <point x="711" y="516"/>
      <point x="736" y="484" type="curve" smooth="yes"/>
      <point x="804" y="397"/>
      <point x="843" y="323"/>
      <point x="863" y="248" type="curve" smooth="yes"/>
      <point x="866" y="233"/>
      <point x="895" y="75"/>
      <point x="898" y="50" type="curve" smooth="yes"/>
      <point x="902" y="19"/>
      <point x="902" y="-20"/>
      <point x="897" y="-53" type="curve" smooth="yes"/>
      <point x="885" y="-137"/>
      <point x="855" y="-212"/>
      <point x="808" y="-275" type="curve" smooth="yes"/>
      <point x="782" y="-311"/>
      <point x="744" y="-349"/>
      <point x="707" y="-376" type="curve" smooth="yes"/>
      <point x="648" y="-420"/>
      <point x="573" y="-452"/>
      <point x="497" y="-467" type="curve" smooth="yes"/>
      <point x="470" y="-473"/>
      <point x="194" y="-521"/>
      <point x="180" y="-523" type="curve" smooth="yes"/>
      <point x="153" y="-526"/>
      <point x="135" y="-527"/>
      <point x="105" y="-527" type="curve" smooth="yes"/>
      <point x="54" y="-527"/>
      <point x="8" y="-522"/>
      <point x="-40" y="-509" type="curve" smooth="yes"/>
      <point x="-189" y="-470"/>
      <point x="-312" y="-375"/>
      <point x="-391" y="-238" type="curve" smooth="yes"/>
      <point x="-423" y="-184"/>
      <point x="-449" y="-115"/>
      <point x="-462" y="-56" type="curve" smooth="yes"/>
      <point x="-467" y="-37"/>
      <point x="-495" y="126"/>
      <point x="-497" y="143" type="curve" smooth="yes"/>
      <point x="-511" y="249"/>
      <point x="-492" y="358"/>
      <point x="-443" y="454" type="curve" smooth="yes"/>
      <point x="-424" y="492"/>
      <point x="-402" y="526"/>
      <point x="-374" y="559" type="curve" smooth="yes"/>
      <point x="-361" y="575"/>
      <point x="-324" y="612"/>
      <point x="-308" y="625" type="curve" smooth="yes"/>
      <point x="-249" y="674"/>
      <point x="-181" y="710"/>
      <point x="-108" y="731" type="curve" smooth="yes"/>
      <point x="-97" y="734"/>
      <point x="-68" y="739"/>
      <point x="12" y="754" type="curve" smooth="yes"/>
      <point x="69" y="764"/>
      <point x="117" y="772"/>
      <point x="118" y="772" type="curve" smooth="yes"/>
      <point x="119" y="772"/>
      <point x="88" y="828"/>
      <point x="67" y="863" type="curve" smooth="yes"/>
      <point x="8" y="961"/>
      <point x="-38" y="1021"/>
      <point x="-98" y="1077" type="curve" smooth="yes"/>
      <point x="-123" y="1101"/>
      <point x="-143" y="1118"/>
      <point x="-201" y="1166" type="curve" smooth="yes"/>
      <point x="-279" y="1231"/>
      <point x="-297" y="1247"/>
      <point x="-330" y="1281" type="curve" smooth="yes"/>
      <point x="-353" y="1304"/>
      <point x="-365" y="1318"/>
      <point x="-381" y="1339" type="curve" smooth="yes"/>
      <point x="-409" y="1376"/>
      <point x="-426" y="1409"/>
      <point x="-439" y="1448" type="curve" smooth="yes"/>
      <point x="-445" y="1468"/>
      <point x="-447" y="1476"/>
      <point x="-461" y="1556" type="curve" smooth="yes"/>
      <point x="-477" y="1645"/>
      <point x="-479" y="1655"/>
      <point x="-481" y="1675" type="curve" smooth="yes"/>
      <point x="-483" y="1695"/>
      <point x="-484" y="1745"/>
      <point x="-482" y="1765" type="curve" smooth="yes"/>
      <point x="-476" y="1854"/>
      <point x="-446" y="1934"/>
      <point x="-396" y="2003" type="curve"/>
      <point x="-365" y="2044"/>
      <point x="-322" y="2084"/>
      <point x="-277" y="2114" type="curve" smooth="yes"/>
      <point x="-219" y="2153"/>
      <point x="-147" y="2183"/>
      <point x="-76" y="2198" type="curve" smooth="yes"/>
      <point x="-63" y="2200"/>
      <point x="211" y="2249"/>
      <point x="232" y="2252" type="curve" smooth="yes"/>
      <point x="247" y="2254"/>
      <point x="268" y="2257"/>
    </contour>
    <contour>
      <point x="136" y="2058" type="curve" smooth="yes"/>
      <point x="107" y="2061"/>
      <point x="112" y="2062"/>
      <point x="88" y="2050" type="curve" smooth="yes"/>
      <point x="55" y="2033"/>
      <point x="30" y="2019"/>
      <point x="3" y="1998" type="curve" smooth="yes"/>
      <point x="-83" y="1933"/>
      <point x="-142" y="1846"/>
      <point x="-166" y="1746" type="curve" smooth="yes"/>
      <point x="-175" y="1711"/>
      <point x="-179" y="1682"/>
      <point x="-180" y="1647" type="curve"/>
      <point x="-180" y="1623" type="line"/>
      <point x="-177" y="1615" type="line"/>
      <point x="-162" y="1581"/>
      <point x="-140" y="1547"/>
      <point x="-110" y="1511" type="curve" smooth="yes"/>
      <point x="-96" y="1494"/>
      <point x="-49" y="1448"/>
      <point x="-25" y="1427" type="curve" smooth="yes"/>
      <point x="-14" y="1417"/>
      <point x="19" y="1389"/>
      <point x="48" y="1365" type="curve" smooth="yes"/>
      <point x="77" y="1340"/>
      <point x="108" y="1315"/>
      <point x="116" y="1308" type="curve" smooth="yes"/>
      <point x="154" y="1274"/>
      <point x="183" y="1246"/>
      <point x="207" y="1218" type="curve" smooth="yes"/>
      <point x="214" y="1209"/>
      <point x="222" y="1200"/>
      <point x="223" y="1199" type="curve" smooth="yes"/>
      <point x="226" y="1196" type="line"/>
      <point x="241" y="1198" type="line"/>
      <point x="299" y="1208"/>
      <point x="361" y="1236"/>
      <point x="414" y="1274" type="curve" smooth="yes"/>
      <point x="449" y="1299"/>
      <point x="485" y="1335"/>
      <point x="510" y="1370" type="curve" smooth="yes"/>
      <point x="572" y="1455"/>
      <point x="601" y="1555"/>
      <point x="594" y="1660" type="curve" smooth="yes"/>
      <point x="593" y="1674"/>
      <point x="592" y="1678"/>
      <point x="589" y="1689" type="curve" smooth="yes"/>
      <point x="571" y="1746"/>
      <point x="543" y="1803"/>
      <point x="509" y="1850" type="curve" smooth="yes"/>
      <point x="482" y="1887"/>
      <point x="447" y="1923"/>
      <point x="411" y="1952" type="curve"/>
      <point x="335" y="2010"/>
      <point x="236" y="2049"/>
    </contour>
    <contour>
      <point x="214" y="616" type="curve" smooth="yes"/>
      <point x="208" y="625"/>
      <point x="202" y="633"/>
      <point x="202" y="633" type="curve"/>
      <point x="200" y="633"/>
      <point x="197" y="632"/>
      <point x="177" y="625" type="curve" smooth="yes"/>
      <point x="111" y="604"/>
      <point x="50" y="571"/>
      <point x="-5" y="525" type="curve" smooth="yes"/>
      <point x="-20" y="513"/>
      <point x="-59" y="474"/>
      <point x="-71" y="459" type="curve" smooth="yes"/>
      <point x="-154" y="360"/>
      <point x="-198" y="240"/>
      <point x="-198" y="115" type="curve" smooth="yes"/>
      <point x="-198" y="90" type="line"/>
      <point x="-193" y="74" type="line"/>
      <point x="-179" y="38"/>
      <point x="-171" y="17"/>
      <point x="-155" y="-13" type="curve" smooth="yes"/>
      <point x="-109" y="-104"/>
      <point x="-42" y="-181"/>
      <point x="38" y="-234" type="curve" smooth="yes"/>
      <point x="116" y="-286"/>
      <point x="206" y="-318"/>
      <point x="300" y="-327" type="curve"/>
      <point x="314" y="-329" type="line"/>
      <point x="330" y="-321" type="line" smooth="yes"/>
      <point x="352" y="-310"/>
      <point x="364" y="-303"/>
      <point x="386" y="-288" type="curve" smooth="yes"/>
      <point x="457" y="-241"/>
      <point x="513" y="-177"/>
      <point x="550" y="-102" type="curve"/>
      <point x="576" y="-46"/>
      <point x="593" y="18"/>
      <point x="597" y="78" type="curve" smooth="yes"/>
      <point x="598" y="96" type="line"/>
      <point x="594" y="108" type="line"/>
      <point x="561" y="189"/>
      <point x="508" y="266"/>
      <point x="399" y="391" type="curve" smooth="yes"/>
      <point x="387" y="404"/>
      <point x="365" y="429"/>
      <point x="349" y="447" type="curve" smooth="yes"/>
      <point x="283" y="522"/>
      <point x="243" y="572"/>
    </contour>
  </outline>
</glyph>
<glyph name="T" format="1">
  <advance width="530"/>
  <unicode hex="0054"/>
  <outline>
    <contour>
      <point x="1" y="1675" type="curve" smooth="yes"/>
      <point x="138" y="1699" type="line"/>
      <point x="289" y="1699" type="line"/>
      <point x="440" y="1699" type="line"/>
      <point x="440" y="1696" type="line"/>
      <point x="445" y="1671"/>
      <point x="466" y="1551"/>
      <point x="466" y="1551" type="curve" smooth="yes"/>
      <point x="466" y="1550"/>
      <point x="432" y="1545"/>
      <point x="392" y="1537" type="curve" smooth="yes"/>
      <point x="318" y="1524" type="line"/>
      <point x="317" y="737" type="line"/>
      <point x="317" y="-50" type="line"/>
      <point x="314" y="-51" type="line"/>
      <point x="301" y="-53"/>
      <point x="40" y="-99"/>
      <point x="40" y="-99" type="curve"/>
      <point x="40" y="-99"/>
      <point x="34" y="-65"/>
      <point x="27" y="-24" type="curve" smooth="yes"/>
      <point x="14" y="50" type="line"/>
      <point x="14" y="776" type="line"/>
      <point x="14" y="1502" type="line"/>
      <point x="-48" y="1502" type="line"/>
      <point x="-110" y="1502" type="line"/>
      <point x="-110" y="1505" type="line"/>
      <point x="-115" y="1530"/>
      <point x="-136" y="1650"/>
      <point x="-136" y="1650" type="curve" smooth="yes"/>
      <point x="-136" y="1651"/>
      <point x="-74" y="1661"/>
    </contour>
  </outline>
</glyph>
<glyph name="U" format="1">
  <advance width="680"/>
  <unicode hex="0055"/>
  <outline>
    <contour>
      <point x="78" y="1674" type="curve"/>
      <point x="153" y="1688"/>
      <point x="215" y="1699"/>
      <point x="215" y="1699" type="curve" smooth="yes"/>
      <point x="216" y="1699"/>
      <point x="216" y="1696"/>
      <point x="217" y="1692" type="curve" smooth="yes"/>
      <point x="218" y="1688"/>
      <point x="223" y="1660"/>
      <point x="228" y="1630" type="curve" smooth="yes"/>
      <point x="238" y="1575" type="line"/>
      <point x="238" y="1612" type="line"/>
      <point x="238" y="1650" type="line"/>
      <point x="241" y="1651" type="line"/>
      <point x="254" y="1653"/>
      <point x="515" y="1699"/>
      <point x="515" y="1699" type="curve"/>
      <point x="515" y="1699"/>
      <point x="521" y="1665"/>
      <point x="528" y="1624" type="curve" smooth="yes"/>
      <point x="541" y="1550" type="line"/>
      <point x="541" y="1042" type="line"/>
      <point x="541" y="535" type="line"/>
      <point x="549" y="526" type="line"/>
      <point x="580" y="494"/>
      <point x="602" y="454"/>
      <point x="612" y="413" type="curve" smooth="yes"/>
      <point x="614" y="404"/>
      <point x="641" y="251"/>
      <point x="643" y="238" type="curve" smooth="yes"/>
      <point x="646" y="216"/>
      <point x="645" y="185"/>
      <point x="641" y="161" type="curve" smooth="yes"/>
      <point x="623" y="61"/>
      <point x="552" y="-17"/>
      <point x="457" y="-41" type="curve" smooth="yes"/>
      <point x="449" y="-43"/>
      <point x="185" y="-91"/>
      <point x="153" y="-96" type="curve" smooth="yes"/>
      <point x="138" y="-98"/>
      <point x="102" y="-99"/>
      <point x="85" y="-97" type="curve" smooth="yes"/>
      <point x="26" y="-90"/>
      <point x="-23" y="-66"/>
      <point x="-63" y="-26" type="curve" smooth="yes"/>
      <point x="-97" y="8"/>
      <point x="-120" y="50"/>
      <point x="-131" y="97" type="curve" smooth="yes"/>
      <point x="-136" y="114"/>
      <point x="-163" y="270"/>
      <point x="-164" y="284" type="curve" smooth="yes"/>
      <point x="-171" y="363"/>
      <point x="-140" y="441"/>
      <point x="-80" y="493" type="curve" smooth="yes"/>
      <point x="-74" y="498"/>
      <point x="-68" y="503"/>
      <point x="-65" y="505" type="curve" smooth="yes"/>
      <point x="-61" y="508" type="line"/>
      <point x="-61" y="1079" type="line" smooth="yes"/>
      <point x="-61" y="1393"/>
      <point x="-61" y="1650"/>
      <point x="-60" y="1650" type="curve" smooth="yes"/>
      <point x="-60" y="1650"/>
      <point x="2" y="1661"/>
    </contour>
    <contour>
      <point x="253" y="420" type="curve" smooth="yes"/>
      <point x="248" y="453"/>
      <point x="243" y="481"/>
      <point x="243" y="482" type="curve"/>
      <point x="242" y="482"/>
      <point x="242" y="466"/>
      <point x="242" y="445" type="curve" smooth="yes"/>
      <point x="242" y="408" type="line"/>
      <point x="232" y="400" type="line" smooth="yes"/>
      <point x="211" y="383"/>
      <point x="188" y="357"/>
      <point x="174" y="335" type="curve" smooth="yes"/>
      <point x="157" y="307"/>
      <point x="146" y="276"/>
      <point x="141" y="245" type="curve"/>
      <point x="140" y="237" type="line"/>
      <point x="144" y="229" type="line"/>
      <point x="163" y="194"/>
      <point x="191" y="163"/>
      <point x="224" y="141" type="curve" smooth="yes"/>
      <point x="236" y="133"/>
      <point x="260" y="120"/>
      <point x="263" y="120" type="curve" smooth="yes"/>
      <point x="267" y="120"/>
      <point x="286" y="143"/>
      <point x="298" y="160" type="curve" smooth="yes"/>
      <point x="317" y="189"/>
      <point x="329" y="219"/>
      <point x="336" y="253" type="curve" smooth="yes"/>
      <point x="341" y="274"/>
      <point x="341" y="271"/>
      <point x="333" y="283" type="curve" smooth="yes"/>
      <point x="330" y="289"/>
      <point x="323" y="299"/>
      <point x="318" y="306" type="curve" smooth="yes"/>
      <point x="308" y="319"/>
      <point x="286" y="342"/>
      <point x="273" y="352" type="curve" smooth="yes"/>
      <point x="268" y="356"/>
      <point x="264" y="360"/>
      <point x="264" y="360" type="curve"/>
      <point x="264" y="360"/>
      <point x="259" y="387"/>
    </contour>
  </outline>
</glyph>
<glyph name="V" format="1">
  <advance width="530"/>
  <unicode hex="0056"/>
  <outline>
    <contour>
      <point x="2" y="1674" type="curve" smooth="yes"/>
      <point x="78" y="1688"/>
      <point x="140" y="1699"/>
      <point x="140" y="1699" type="curve" smooth="yes"/>
      <point x="141" y="1699"/>
      <point x="141" y="1699"/>
      <point x="141" y="1698" type="curve" smooth="yes"/>
      <point x="141" y="1696"/>
      <point x="157" y="1605"/>
      <point x="158" y="1604" type="curve" smooth="yes"/>
      <point x="158" y="1603"/>
      <point x="159" y="1612"/>
      <point x="161" y="1626" type="curve" smooth="yes"/>
      <point x="162" y="1639"/>
      <point x="163" y="1649"/>
      <point x="163" y="1650" type="curve"/>
      <point x="164" y="1650"/>
      <point x="439" y="1699"/>
      <point x="440" y="1699" type="curve" smooth="yes"/>
      <point x="440" y="1699"/>
      <point x="446" y="1665"/>
      <point x="453" y="1625" type="curve" smooth="yes"/>
      <point x="466" y="1552" type="line"/>
      <point x="391" y="751" type="line" smooth="yes"/>
      <point x="350" y="311"/>
      <point x="317" y="-50"/>
      <point x="316" y="-50" type="curve" smooth="yes"/>
      <point x="316" y="-50"/>
      <point x="254" y="-61"/>
      <point x="178" y="-74" type="curve" smooth="yes"/>
      <point x="57" y="-96"/>
      <point x="40" y="-99"/>
      <point x="40" y="-97" type="curve"/>
      <point x="39" y="-96"/>
      <point x="33" y="-64"/>
      <point x="27" y="-24" type="curve"/>
      <point x="14" y="47" type="line"/>
      <point x="-61" y="848" type="line" smooth="yes"/>
      <point x="-102" y="1289"/>
      <point x="-136" y="1650"/>
      <point x="-136" y="1650" type="curve" smooth="yes"/>
      <point x="-135" y="1650"/>
      <point x="-73" y="1661"/>
    </contour>
  </outline>
</glyph>
<glyph name="W" format="1">
  <advance width="790"/>
  <unicode hex="0057"/>
  <outline>
    <contour>
      <point x="32" y="1674" type="curve" smooth="yes"/>
      <point x="108" y="1688"/>
      <point x="170" y="1699"/>
      <point x="170" y="1699" type="curve" smooth="yes"/>
      <point x="171" y="1699"/>
      <point x="171" y="1696"/>
      <point x="172" y="1692" type="curve" smooth="yes"/>
      <point x="173" y="1688"/>
      <point x="177" y="1664"/>
      <point x="181" y="1638" type="curve" smooth="yes"/>
      <point x="191" y="1585"/>
      <point x="190" y="1586"/>
      <point x="192" y="1625" type="curve" smooth="yes"/>
      <point x="193" y="1638"/>
      <point x="193" y="1650"/>
      <point x="193" y="1650" type="curve" smooth="yes"/>
      <point x="194" y="1650"/>
      <point x="469" y="1699"/>
      <point x="470" y="1699" type="curve" smooth="yes"/>
      <point x="470" y="1699"/>
      <point x="476" y="1665"/>
      <point x="483" y="1625" type="curve" smooth="yes"/>
      <point x="496" y="1552" type="line"/>
      <point x="459" y="752" type="line" smooth="yes"/>
      <point x="438" y="312"/>
      <point x="421" y="-49"/>
      <point x="421" y="-49" type="curve" smooth="yes"/>
      <point x="420" y="-51"/>
      <point x="146" y="-99"/>
      <point x="145" y="-98" type="curve" smooth="yes"/>
      <point x="145" y="-97"/>
      <point x="143" y="-92"/>
      <point x="142" y="-86" type="curve" smooth="yes"/>
      <point x="142" y="-80"/>
      <point x="140" y="-75"/>
      <point x="140" y="-74" type="curve" smooth="yes"/>
      <point x="140" y="-74"/>
      <point x="112" y="-78"/>
      <point x="68" y="-86" type="curve" smooth="yes"/>
      <point x="28" y="-93"/>
      <point x="-5" y="-99"/>
      <point x="-5" y="-98" type="curve" smooth="yes"/>
      <point x="-5" y="-98"/>
      <point x="-11" y="-66"/>
      <point x="-18" y="-26" type="curve" smooth="yes"/>
      <point x="-31" y="46" type="line"/>
      <point x="-68" y="847" type="line" smooth="yes"/>
      <point x="-89" y="1289"/>
      <point x="-106" y="1650"/>
      <point x="-106" y="1650" type="curve" smooth="yes"/>
      <point x="-105" y="1650"/>
      <point x="-43" y="1661"/>
    </contour>
  </outline>
</glyph>
<glyph name="X" format="1">
  <advance width="590"/>
  <unicode hex="0058"/>
  <outline>
    <contour>
      <point x="32" y="1674" type="curve" smooth="yes"/>
      <point x="108" y="1688"/>
      <point x="170" y="1699"/>
      <point x="170" y="1699" type="curve" smooth="yes"/>
      <point x="171" y="1699"/>
      <point x="171" y="1699"/>
      <point x="171" y="1698" type="curve" smooth="yes"/>
      <point x="171" y="1697"/>
      <point x="186" y="1617"/>
      <point x="186" y="1616" type="curve" smooth="yes"/>
      <point x="186" y="1615"/>
      <point x="188" y="1623"/>
      <point x="190" y="1632" type="curve" smooth="yes"/>
      <point x="191" y="1641"/>
      <point x="193" y="1649"/>
      <point x="193" y="1650" type="curve"/>
      <point x="194" y="1650"/>
      <point x="469" y="1699"/>
      <point x="470" y="1699" type="curve" smooth="yes"/>
      <point x="470" y="1699"/>
      <point x="476" y="1665"/>
      <point x="483" y="1624" type="curve" smooth="yes"/>
      <point x="496" y="1550" type="line"/>
      <point x="422" y="1152" type="line"/>
      <point x="347" y="754" type="line"/>
      <point x="409" y="426" type="line"/>
      <point x="462" y="139"/>
      <point x="497" y="-49"/>
      <point x="496" y="-50" type="curve" smooth="yes"/>
      <point x="495" y="-50"/>
      <point x="220" y="-99"/>
      <point x="219" y="-99" type="curve" smooth="yes"/>
      <point x="219" y="-99"/>
      <point x="216" y="-80"/>
      <point x="212" y="-57" type="curve"/>
      <point x="207" y="-35"/>
      <point x="204" y="-16"/>
      <point x="204" y="-16" type="curve" smooth="yes"/>
      <point x="204" y="-15"/>
      <point x="202" y="-23"/>
      <point x="200" y="-32" type="curve" smooth="yes"/>
      <point x="199" y="-41"/>
      <point x="197" y="-49"/>
      <point x="197" y="-50" type="curve"/>
      <point x="196" y="-50"/>
      <point x="-79" y="-99"/>
      <point x="-80" y="-99" type="curve" smooth="yes"/>
      <point x="-80" y="-99"/>
      <point x="-86" y="-65"/>
      <point x="-93" y="-24" type="curve" smooth="yes"/>
      <point x="-106" y="50" type="line"/>
      <point x="-32" y="448" type="line"/>
      <point x="43" y="846" type="line"/>
      <point x="-19" y="1174" type="line"/>
      <point x="-72" y="1461"/>
      <point x="-107" y="1649"/>
      <point x="-106" y="1650" type="curve" smooth="yes"/>
      <point x="-105" y="1650"/>
      <point x="-43" y="1661"/>
    </contour>
  </outline>
</glyph>
<glyph name="Y" format="1">
  <advance width="530"/>
  <unicode hex="0059"/>
  <outline>
    <contour>
      <point x="2" y="1674" type="curve" smooth="yes"/>
      <point x="78" y="1688"/>
      <point x="140" y="1699"/>
      <point x="140" y="1699" type="curve"/>
      <point x="142" y="1693" type="line" smooth="yes"/>
      <point x="142" y="1690"/>
      <point x="146" y="1670"/>
      <point x="150" y="1649" type="curve" smooth="yes"/>
      <point x="156" y="1610" type="line"/>
      <point x="160" y="1629" type="line"/>
      <point x="161" y="1640"/>
      <point x="163" y="1649"/>
      <point x="163" y="1650" type="curve"/>
      <point x="164" y="1650"/>
      <point x="439" y="1699"/>
      <point x="440" y="1699" type="curve" smooth="yes"/>
      <point x="440" y="1699"/>
      <point x="446" y="1665"/>
      <point x="453" y="1624" type="curve" smooth="yes"/>
      <point x="466" y="1550" type="line"/>
      <point x="391" y="1094" type="line"/>
      <point x="317" y="639" type="line"/>
      <point x="317" y="294" type="line"/>
      <point x="317" y="-50" type="line"/>
      <point x="314" y="-51" type="line"/>
      <point x="301" y="-53"/>
      <point x="40" y="-99"/>
      <point x="40" y="-99" type="curve"/>
      <point x="40" y="-99"/>
      <point x="34" y="-65"/>
      <point x="27" y="-24" type="curve" smooth="yes"/>
      <point x="14" y="50" type="line"/>
      <point x="14" y="393" type="line"/>
      <point x="14" y="736" type="line"/>
      <point x="-61" y="1193" type="line" smooth="yes"/>
      <point x="-102" y="1444"/>
      <point x="-136" y="1650"/>
      <point x="-136" y="1650" type="curve" smooth="yes"/>
      <point x="-135" y="1650"/>
      <point x="-73" y="1661"/>
    </contour>
  </outline>
</glyph>
<glyph name="Z" format="1">
  <advance width="590"/>
  <unicode hex="005A"/>
  <outline>
    <contour>
      <point x="31" y="1675" type="curve" smooth="yes"/>
      <point x="168" y="1699" type="line"/>
      <point x="319" y="1699" type="line"/>
      <point x="470" y="1699" type="line"/>
      <point x="470" y="1696" type="line"/>
      <point x="471" y="1694"/>
      <point x="477" y="1661"/>
      <point x="483" y="1622" type="curve"/>
      <point x="496" y="1551" type="line"/>
      <point x="361" y="828" type="line" smooth="yes"/>
      <point x="287" y="431"/>
      <point x="226" y="104"/>
      <point x="225" y="102" type="curve"/>
      <point x="225" y="99" type="line"/>
      <point x="347" y="99" type="line"/>
      <point x="470" y="99" type="line"/>
      <point x="470" y="96" type="line"/>
      <point x="475" y="71"/>
      <point x="496" y="-49"/>
      <point x="496" y="-49" type="curve" smooth="yes"/>
      <point x="496" y="-50"/>
      <point x="434" y="-61"/>
      <point x="358" y="-74" type="curve" smooth="yes"/>
      <point x="221" y="-98" type="line"/>
      <point x="70" y="-98" type="line"/>
      <point x="-80" y="-98" type="line"/>
      <point x="-80" y="-95" type="line"/>
      <point x="-81" y="-93"/>
      <point x="-87" y="-60"/>
      <point x="-93" y="-21" type="curve"/>
      <point x="-106" y="50" type="line"/>
      <point x="29" y="773" type="line" smooth="yes"/>
      <point x="103" y="1170"/>
      <point x="164" y="1497"/>
      <point x="165" y="1499" type="curve"/>
      <point x="165" y="1502" type="line"/>
      <point x="43" y="1502" type="line"/>
      <point x="-80" y="1502" type="line"/>
      <point x="-80" y="1505" type="line"/>
      <point x="-85" y="1530"/>
      <point x="-106" y="1650"/>
      <point x="-106" y="1650" type="curve" smooth="yes"/>
      <point x="-106" y="1651"/>
      <point x="-44" y="1661"/>
    </contour>
  </outline>
</glyph>
